<svg width="119" height="24" viewBox="0 0 119 24" fill="none" xmlns="http://www.w3.org/2000/svg">
<path d="M111.09 24C111.515 24 111.859 23.6643 111.859 23.2495V9.54331C111.859 9.06142 111.814 8.49658 112.172 8.11541C112.545 7.6829 113.156 7.77375 113.67 7.91002H113.668C114.24 8.07592 114.864 8.12924 115.511 8.03049C117.369 7.7461 118.822 6.23131 118.984 4.40249C119.206 1.9101 117.108 -0.163608 114.562 0.0101879C112.715 0.136585 111.161 1.49141 110.8 3.26492C110.645 4.0312 110.73 4.75799 110.972 5.4117L110.964 5.4038C111.11 5.78496 111.211 6.13848 111.138 6.58482C111.08 6.94821 110.744 7.33531 110.27 7.38468C109.912 7.42023 109.635 7.39258 109.252 7.42023C108.002 7.51305 107 8.43536 107 9.56108V23.2238C107 23.6524 107.356 23.998 107.793 23.998H111.09V24Z" fill="#818181"/>
<path d="M97.877 7C95.9946 7 94.3653 7.59451 93.0066 8.79144C91.6479 7.59451 90.0244 7 88.1421 7C86.2597 7 84.6051 7.47601 83.3203 8.45962C81.7709 9.64271 81 11.3413 81 13.5653V23.2296C81 23.2296 81 23.6049 81.2278 23.7866C81.2278 23.7866 81.4263 23.9999 81.7592 23.9999H84.79C85.1735 23.9999 85.3584 23.7747 85.3584 23.7747C85.5745 23.5673 85.5745 23.2296 85.5745 23.2296V11.8292C85.5745 11.1596 85.8217 10.5947 86.3337 10.1385C86.8398 9.67432 87.4569 9.4373 88.1674 9.4373C88.8779 9.4373 89.5066 9.67432 90.0011 10.1385C90.5189 10.5967 90.7661 11.1596 90.7661 11.8292V23.2296C90.7661 23.2296 90.7777 23.5989 91.0074 23.8004C91.0074 23.8004 91.1865 23.988 91.5447 23.9999H94.5074C94.8773 24.0058 95.0505 23.7925 95.0505 23.7925C95.2919 23.5614 95.2783 23.2296 95.2783 23.2296V11.8292C95.2783 11.1596 95.5255 10.5947 96.0374 10.1385C96.5494 9.67432 97.1431 9.4373 97.8595 9.4373C98.5758 9.4373 99.1676 9.67432 99.6737 10.1385C100.18 10.5967 100.427 11.1596 100.427 11.8292V23.2296C100.427 23.2296 100.452 23.9742 101.198 23.9999H104.217C104.982 23.9999 104.996 23.2296 104.996 23.2296V13.5653C105.038 12.2321 104.76 11.1971 104.305 10.2965C103.193 8.09817 101.052 7.00198 97.8789 7.00198L97.877 7Z" fill="#818181"/>
<path d="M16.8724 7C14.9856 7 13.375 7.59583 12.0114 8.78946C10.6537 7.59583 9.03144 7 7.15045 7C5.26947 7 3.61608 7.483 2.32643 8.46284C0.783905 9.64262 0 11.3489 0 13.5858V23.2279C0 23.2279 0.011671 23.604 0.233421 23.7861C0.233421 23.7861 0.437664 23.9999 0.770288 23.9999H3.79892C4.18212 23.9999 4.37275 23.7742 4.37275 23.7742C4.5945 23.5664 4.56921 23.2279 4.56921 23.2279V11.8399C4.56921 11.1747 4.82792 10.6086 5.33366 10.1395C5.83941 9.68023 6.45019 9.44863 7.16602 9.44863C7.88184 9.44863 8.5043 9.68023 9.02366 10.1395C9.5119 10.6106 9.77644 11.1747 9.77644 11.8399V23.2279C9.77644 23.2279 9.78227 23.598 10.004 23.7999C10.004 23.7999 10.2005 23.988 10.5409 23.9999H13.5151C13.8983 24.0058 14.0694 23.792 14.0694 23.792C14.2853 23.5604 14.2853 23.2279 14.2853 23.2279V11.8399C14.2853 11.1747 14.5266 10.6086 15.0265 10.1395C15.5264 9.68023 16.1547 9.44863 16.853 9.44863C17.5513 9.44863 18.1601 9.68023 18.6659 10.1395C19.1658 10.6106 19.4187 11.1747 19.4187 11.8399V23.2279C19.4187 23.2279 19.4381 23.9741 20.1889 23.9999H23.2117C23.9704 23.9999 23.9957 23.2279 23.9957 23.2279V13.5858C24.0384 12.2358 23.7622 11.2064 23.2993 10.2959C22.1828 8.09862 20.0489 7 16.8724 7Z" fill="#818181"/>
<path d="M57.8575 9.0085C56.3742 7.66488 54.5939 7 52.5069 7C50.4199 7 48.6338 7.65895 47.1447 9.0085C45.6789 10.3521 44.9645 11.9569 45.0014 13.8526V23.2283C45.0014 23.2283 45.0072 24 45.7702 24H48.7075C49.4763 24 49.4647 23.2283 49.4647 23.2283V12.1152C49.453 11.387 49.6977 10.6964 50.3073 10.1582C50.9111 9.61204 51.6488 9.335 52.5108 9.335C53.3728 9.335 54.093 9.61204 54.7085 10.1443C55.3239 10.6905 55.5646 11.3989 55.5588 12.0954V23.2283C55.5588 23.2283 55.5782 24 56.3276 24H59.2281C59.5795 24 59.7814 23.7744 59.7814 23.7744C60.028 23.537 59.9969 23.1788 59.9969 23.1788V13.8526C60.0532 11.9569 59.3388 10.3501 57.8536 9.0085H57.8575Z" fill="#818181"/>
<path d="M77.9969 13.8236C78.0532 11.9514 77.3446 10.339 75.8535 9.00417C74.376 7.67528 72.5899 7 70.5086 7C68.4273 7 66.6412 7.67528 65.1521 9.00417C63.6688 10.3409 62.9485 11.9455 63.0029 13.8236V23.2322C63.0029 23.2322 63.0145 24 63.7717 24H66.7091C67.4857 24 67.4663 23.2322 67.4663 23.2322V18.6962H73.5548V23.2322C73.5548 23.2322 73.58 24 74.3372 24H77.2242C77.5756 24 77.7911 23.7756 77.7911 23.7756C78.0435 23.5393 77.995 23.183 77.995 23.183V13.8236H77.9969ZM73.5587 15.6624H67.4702V12.101C67.4585 11.3765 67.7032 10.6894 68.3206 10.146C68.9244 9.60857 69.6563 9.33492 70.5183 9.33492C71.3803 9.33492 72.0948 9.60857 72.7219 10.1401C73.3257 10.6835 73.5781 11.3942 73.5587 12.0951V15.6624Z" fill="#818181"/>
<path d="M34.9874 7C30.596 7 27.2898 9.88805 27 13.3328V17.6726C27.2956 21.1483 30.5648 24.0112 34.9874 23.9996C39.336 24.0364 42.8016 21.2102 43 17.6726V13.3328C42.7958 9.83779 39.3729 7 34.9874 7ZM38.3733 18.9427C38.4102 20.493 36.8427 21.6161 34.9874 21.6161C33.132 21.6161 31.6442 20.4273 31.6442 18.9427V12.0512C31.6442 10.5008 33.2351 9.40864 34.9874 9.38351C36.9419 9.38931 38.3733 10.5666 38.3733 12.0512V18.9427Z" fill="#818181"/>
</svg>
