<svg width="349" height="70" viewBox="0 0 349 70" fill="none" xmlns="http://www.w3.org/2000/svg">
<path d="M319.981 69.0799C321.174 69.0799 322.14 68.1159 322.14 66.9216V27.5214C322.14 27.5214 322.14 27.4848 322.14 27.4676C322.14 26.0797 322.013 24.4572 323.021 23.3576C324.069 22.116 325.781 22.3742 327.228 22.768L327.219 22.7615C328.826 23.2457 330.576 23.4006 332.396 23.1144C337.613 22.2946 341.688 17.9371 342.148 12.6715C342.772 5.49728 336.88 -0.471928 329.733 0.029451C324.544 0.393112 320.183 4.2901 319.172 9.39857C318.738 11.6021 318.974 13.6958 319.656 15.5765L319.632 15.555C320.039 16.6503 320.322 17.6681 320.122 18.9527C319.957 19.9964 319.013 21.1154 317.684 21.2531C316.679 21.3585 315.899 21.2724 314.826 21.3542C311.314 21.6232 308.501 24.2743 308.501 27.5192V66.8506C308.501 68.0815 309.499 69.0778 310.729 69.0778L319.981 69.0799Z" fill="#F5F5F7"/>
<path d="M280.825 20.1484C275.328 20.1484 270.571 21.8613 266.61 25.3043C262.644 21.8613 257.904 20.1484 252.408 20.1484C246.769 20.1484 242.083 21.5192 238.335 24.351C233.812 27.7574 231.562 32.6442 231.562 39.0438V66.8649C231.562 66.8649 231.563 67.9473 232.229 68.4702C232.229 68.4702 232.808 69.0813 233.78 69.0813H242.627C243.745 69.0813 244.285 68.4336 244.285 68.4336C244.915 67.8397 244.915 66.8649 244.915 66.8649V34.0493C244.915 32.1213 245.638 30.4966 247.132 29.1797C248.61 27.8456 250.41 27.1613 252.483 27.1613C254.556 27.1613 256.393 27.8456 257.834 29.1797C259.348 30.4966 260.068 32.1191 260.068 34.0493V66.8628C260.068 66.8628 260.105 67.928 260.771 68.5047C260.771 68.5047 261.292 69.0448 262.339 69.0813H270.986C272.068 69.1007 272.573 68.4874 272.573 68.4874C273.274 67.8204 273.24 66.8649 273.24 66.8649V34.0493C273.24 32.1213 273.96 30.4966 275.457 29.1797C276.952 27.8456 278.681 27.1613 280.773 27.1613C282.808 27.1613 284.591 27.8456 286.07 29.1797C287.548 30.4966 288.268 32.1191 288.268 34.0493V66.8628C288.268 66.8628 288.339 69.0082 290.52 69.0792H299.333C301.567 69.0792 301.604 66.8628 301.604 66.8628V39.0438C301.73 35.2049 300.918 32.2289 299.586 29.6338C296.341 23.303 290.087 20.1484 280.825 20.1484Z" fill="#F5F5F7"/>
<path d="M49.2818 20.2539C43.7678 20.2539 39.0646 21.9668 35.0818 25.3925C31.1184 21.9668 26.3786 20.2539 20.8818 20.2539C15.2603 20.2539 10.557 21.6418 6.79141 24.4543C2.28603 27.8435 0 32.7475 0 39.1686V66.8607C0 66.8607 0.0365592 67.943 0.683873 68.4659C0.683873 68.4659 1.27742 69.0771 2.25162 69.0771H11.099C12.2172 69.0771 12.7742 68.4294 12.7742 68.4294C13.4237 67.8354 13.3506 66.8607 13.3506 66.8607V34.1548C13.3506 32.244 14.1076 30.6215 15.585 29.268C17.0646 27.9511 18.8474 27.2861 20.9377 27.2861C23.028 27.2861 24.8474 27.9532 26.3614 29.268C27.785 30.6193 28.5592 32.244 28.5592 34.1548V66.8607C28.5592 66.8607 28.5764 67.9258 29.2259 68.5025C29.2259 68.5025 29.8022 69.0426 30.7936 69.0792H39.4797C40.5979 69.0986 41.099 68.4853 41.099 68.4853C41.7291 67.8182 41.7291 66.8628 41.7291 66.8628V34.1548C41.7291 32.244 42.4324 30.6215 43.8926 29.268C45.3528 27.9511 47.1894 27.2861 49.2259 27.2861C51.2797 27.2861 53.0453 27.9532 54.5227 29.268C55.9829 30.6193 56.7206 32.244 56.7206 34.1548V66.8607C56.7206 66.8607 56.7743 69.0061 58.9722 69.0771H67.8023C70.0195 69.0771 70.0905 66.8607 70.0905 66.8607V39.1686C70.2174 35.291 69.4066 32.3344 68.0539 29.7199C64.7959 23.4107 58.5614 20.2539 49.2818 20.2539Z" fill="#F5F5F7"/>
<path d="M167.505 26.0074C163.163 22.1491 157.956 20.2383 151.847 20.2383C145.756 20.2383 140.513 22.1319 136.152 26.0074C131.864 29.8656 129.773 34.4813 129.881 39.9276V66.8644C129.881 66.8644 129.898 69.0808 132.133 69.0808H140.728C142.98 69.0808 142.945 66.8644 142.945 66.8644V34.9332C142.909 32.8395 143.629 30.8576 145.414 29.3061C147.18 27.7375 149.343 26.9434 151.866 26.9434C154.335 26.9434 156.496 27.7375 158.298 29.2696C160.1 30.8383 160.804 32.8761 160.784 34.8773V48.9417V50.5448V66.8623C160.784 66.8623 160.838 69.0787 163.036 69.0787H171.524C172.552 69.0787 173.143 68.431 173.143 68.431C173.864 67.7467 173.773 66.7159 173.773 66.7159V39.9255C173.937 34.4813 171.847 29.8656 167.505 26.0074Z" fill="#F5F5F7"/>
<path d="M224.661 39.691C224.825 34.2834 222.752 29.6311 218.39 25.7728C214.068 21.9318 208.842 19.9844 202.752 19.9844C196.644 19.9844 191.435 21.9318 187.074 25.7728C182.732 29.6311 180.625 34.264 180.786 39.691V66.8623C180.786 66.8623 180.825 69.0787 183.04 69.0787H191.633C193.904 69.0787 193.851 66.8623 193.851 66.8623V53.764H211.67V66.8623C211.67 66.8623 211.741 69.0787 213.958 69.0787H222.41C223.438 69.0787 224.068 68.431 224.068 68.431C224.808 67.7467 224.661 66.7159 224.661 66.7159V39.691ZM211.67 44.9995H193.851V34.7137C193.814 32.6221 194.534 30.6381 196.337 29.0695C198.1 27.518 200.244 26.7261 202.769 26.7261C205.274 26.7261 207.382 27.5201 209.218 29.0522C210.984 30.6209 211.724 32.6759 211.67 34.6965V44.9995Z" fill="#F5F5F7"/>
<path d="M99.9947 20.0039C87.1646 20.0039 77.5065 28.4951 76.6592 38.6281V51.395C77.5237 61.6184 87.0743 70.0364 99.9947 69.9998C112.698 70.1096 122.825 61.7948 123.401 51.395V38.6281C122.806 28.3509 112.806 20.0039 99.9947 20.0039ZM109.885 55.1263C109.993 59.686 105.416 62.9848 99.9926 62.9848C94.6055 62.9848 90.2248 59.4881 90.2248 55.1263V34.8602C90.2248 30.2983 94.8743 27.0899 99.9926 27.0168C105.704 27.034 109.885 30.4963 109.885 34.8602V55.1263Z" fill="#F5F5F7"/>
<path d="M339.677 54.0352C340.986 54.0352 341.958 54.2955 342.588 54.8163C343.219 55.3392 343.533 56.1289 343.533 57.1919C343.533 58.1839 343.253 58.9091 342.702 59.3739C342.145 59.8322 341.455 60.1055 340.631 60.1937L343.786 65.0612H341.943L338.943 60.3207H337.128V65.0612H335.412V54.0373L339.677 54.0352ZM338.922 58.9241C339.305 58.9241 339.67 58.9134 340.019 58.8897C340.361 58.866 340.67 58.7907 340.937 58.6745C341.208 58.5562 341.423 58.3776 341.58 58.1344C341.741 57.8913 341.823 57.5491 341.823 57.1058C341.823 56.74 341.748 56.4431 341.608 56.2236C341.464 56.0084 341.277 55.8406 341.051 55.7201C340.825 55.6039 340.563 55.5221 340.268 55.4833C339.978 55.4425 339.687 55.4209 339.399 55.4209H337.13V58.9241H338.922Z" fill="#F5F5F7"/>
<path d="M339.06 68.9145C333.912 68.9145 329.723 64.727 329.723 59.5755C329.723 54.424 333.912 50.2344 339.06 50.2344C344.207 50.2344 348.394 54.424 348.394 59.5755C348.394 64.727 344.204 68.9145 339.06 68.9145ZM339.06 51.7213C334.729 51.7213 331.211 55.2439 331.211 59.5734C331.211 63.9029 334.731 67.4233 339.06 67.4233C343.385 67.4233 346.905 63.9007 346.905 59.5734C346.905 55.2439 343.383 51.7213 339.06 51.7213Z" fill="#F5F5F7"/>
</svg>
