<svg width="40" height="40" viewBox="0 0 40 40" fill="none" xmlns="http://www.w3.org/2000/svg">
<circle cx="20" cy="20" r="20" fill="black"/>
<path d="M18.5682 17.8896V22.1104L22.2273 19.9999L18.5682 17.8896ZM26.7074 23.4385C26.5464 24.0531 26.072 24.5372 25.4697 24.7015C24.3779 25 20 25 20 25C20 25 15.6221 25 14.5303 24.7015C13.9279 24.5372 13.4535 24.0531 13.2925 23.4385C13 22.3244 13 20 13 20C13 20 13 17.6756 13.2925 16.5615C13.4535 15.9469 13.9279 15.4628 14.5303 15.2985C15.6221 15 20 15 20 15C20 15 24.3779 15 25.4697 15.2985C26.072 15.4628 26.5464 15.9469 26.7074 16.5615C27 17.6756 27 20 27 20C27 20 27 22.3244 26.7074 23.4385Z" fill="white"/>
</svg>
