<svg width="125" height="25" viewBox="0 0 125 25" fill="none" xmlns="http://www.w3.org/2000/svg">
<path d="M114.28 24.6718C114.706 24.6718 115.051 24.3275 115.051 23.9009V9.82922C115.051 9.82922 115.051 9.81615 115.051 9.81C115.051 9.3143 115.005 8.73483 115.366 8.34212C115.74 7.89868 116.351 7.9909 116.868 8.13154L116.865 8.12924C117.439 8.30215 118.064 8.35749 118.714 8.25527C120.577 7.96247 122.032 6.4062 122.197 4.52561C122.419 1.96335 120.315 -0.168548 117.763 0.0105184C115.909 0.140399 114.352 1.5322 113.991 3.35668C113.836 4.14366 113.92 4.89143 114.164 5.56312L114.155 5.55544C114.3 5.94662 114.402 6.31013 114.33 6.76894C114.271 7.14168 113.934 7.54131 113.459 7.5905C113.101 7.62816 112.822 7.59742 112.439 7.62662C111.184 7.72269 110.18 8.66951 110.18 9.82845V23.8756C110.18 24.3152 110.536 24.671 110.975 24.671L114.28 24.6718Z" fill="#F5F5F7"/>
<path d="M100.297 7.19531C98.3338 7.19531 96.6348 7.80706 95.2201 9.0367C93.8038 7.80706 92.111 7.19531 90.1479 7.19531C88.134 7.19531 86.4604 7.68486 85.1217 8.69624C83.5065 9.91282 82.7031 11.6581 82.7031 13.9437V23.88C82.7031 23.88 82.7031 24.2666 82.9412 24.4534C82.9412 24.4534 83.1478 24.6716 83.495 24.6716H86.6548C87.0541 24.6716 87.2469 24.4403 87.2469 24.4403C87.472 24.2282 87.472 23.88 87.472 23.88V12.16C87.472 11.4714 87.73 10.8912 88.2638 10.4208C88.7915 9.94433 89.4343 9.69994 90.1747 9.69994C90.9151 9.69994 91.5711 9.94433 92.0857 10.4208C92.6264 10.8912 92.8837 11.4706 92.8837 12.16V23.8793C92.8837 23.8793 92.8967 24.2597 93.1348 24.4656C93.1348 24.4656 93.3207 24.6586 93.6947 24.6716H96.7831C97.1694 24.6785 97.3499 24.4595 97.3499 24.4595C97.6003 24.2213 97.588 23.88 97.588 23.88V12.16C97.588 11.4714 97.8453 10.8912 98.3798 10.4208C98.9136 9.94433 99.5312 9.69994 100.278 9.69994C101.005 9.69994 101.642 9.94433 102.17 10.4208C102.698 10.8912 102.955 11.4706 102.955 12.16V23.8793C102.955 23.8793 102.98 24.6455 103.759 24.6708H106.907C107.705 24.6708 107.718 23.8793 107.718 23.8793V13.9437C107.763 12.5727 107.473 11.5098 106.997 10.583C105.838 8.32197 103.605 7.19531 100.297 7.19531Z" fill="#F5F5F7"/>
<path d="M17.6007 7.2334C15.6314 7.2334 13.9517 7.84515 12.5292 9.06864C11.1137 7.84515 9.42093 7.2334 7.45779 7.2334C5.4501 7.2334 3.77037 7.7291 2.42551 8.73356C0.81644 9.94399 0 11.6955 0 13.9888V23.8789C0 23.8789 0.0130569 24.2655 0.244241 24.4522C0.244241 24.4522 0.456223 24.6705 0.804151 24.6705H3.96392C4.36331 24.6705 4.56223 24.4392 4.56223 24.4392C4.79418 24.2271 4.76807 23.8789 4.76807 23.8789V12.1981C4.76807 11.5156 5.03843 10.9362 5.56608 10.4528C6.0945 9.98242 6.73121 9.74495 7.47776 9.74495C8.22431 9.74495 8.87408 9.98319 9.41479 10.4528C9.92324 10.9354 10.1997 11.5156 10.1997 12.1981V23.8789C10.1997 23.8789 10.2059 24.2593 10.4378 24.4653C10.4378 24.4653 10.6437 24.6582 10.9977 24.6713H14.0999C14.4993 24.6782 14.6783 24.4592 14.6783 24.4592C14.9033 24.2209 14.9033 23.8797 14.9033 23.8797V12.1981C14.9033 11.5156 15.1544 10.9362 15.676 10.4528C16.1975 9.98242 16.8534 9.74495 17.5807 9.74495C18.3142 9.74495 18.9448 9.98319 19.4724 10.4528C19.9939 10.9354 20.2574 11.5156 20.2574 12.1981V23.8789C20.2574 23.8789 20.2766 24.6451 21.0615 24.6705H24.2152C25.007 24.6705 25.0324 23.8789 25.0324 23.8789V13.9888C25.0777 12.6039 24.7881 11.5479 24.305 10.6141C23.1414 8.36083 20.9148 7.2334 17.6007 7.2334Z" fill="#F5F5F7"/>
<path d="M59.8213 9.28894C58.2706 7.91097 56.4111 7.22852 54.2291 7.22852C52.054 7.22852 50.1815 7.90482 48.6239 9.28894C47.0924 10.6669 46.3458 12.3154 46.3842 14.2605V23.881C46.3842 23.881 46.3904 24.6725 47.1884 24.6725H50.2583C51.0624 24.6725 51.0501 23.881 51.0501 23.881V12.4768C51.0371 11.729 51.2944 11.0212 51.9319 10.4671C52.5624 9.90683 53.3351 9.62325 54.236 9.62325C55.1177 9.62325 55.8896 9.90683 56.5333 10.454C57.1769 11.0143 57.4281 11.7421 57.4211 12.4568V17.4799V18.0524V23.8802C57.4211 23.8802 57.4403 24.6718 58.2253 24.6718H61.2568C61.6239 24.6718 61.8351 24.4404 61.8351 24.4404C62.0924 24.1961 62.0602 23.8279 62.0602 23.8279V14.2598C62.1185 12.3154 61.372 10.6669 59.8213 9.28894Z" fill="#F5F5F7"/>
<path d="M80.2354 14.1749C80.2938 12.2436 79.5534 10.582 77.9957 9.20406C76.452 7.83224 74.5856 7.13672 72.4105 7.13672C70.2292 7.13672 68.369 7.83224 66.8114 9.20406C65.2607 10.582 64.508 12.2367 64.5656 14.1749V23.8791C64.5656 23.8791 64.5794 24.6707 65.3705 24.6707H68.4396C69.2507 24.6707 69.2315 23.8791 69.2315 23.8791V19.2011H75.5956V23.8791C75.5956 23.8791 75.6209 24.6707 76.4128 24.6707H79.4312C79.7984 24.6707 80.0234 24.4393 80.0234 24.4393C80.2876 24.1949 80.2354 23.8268 80.2354 23.8268V14.1749ZM75.5956 16.0708H69.2315V12.3973C69.2184 11.6503 69.4757 10.9417 70.1194 10.3814C70.7492 9.82733 71.5149 9.54451 72.4166 9.54451C73.3114 9.54451 74.0641 9.8281 74.72 10.3753C75.3506 10.9355 75.6148 11.6695 75.5956 12.3911V16.0708Z" fill="#F5F5F7"/>
<path d="M35.7091 7.14355C31.1269 7.14355 27.6776 10.1762 27.375 13.7952V18.3548C27.6838 22.0061 31.0947 25.0126 35.7091 24.9995C40.246 25.0387 43.8628 22.0691 44.0686 18.3548V13.7952C43.8559 10.1247 40.2844 7.14355 35.7091 7.14355ZM39.2414 19.6875C39.2798 21.316 37.6454 22.4941 35.7084 22.4941C33.7844 22.4941 32.2199 21.2453 32.2199 19.6875V12.4495C32.2199 10.8202 33.8804 9.67432 35.7084 9.64819C37.7483 9.65433 39.2414 10.8909 39.2414 12.4495V19.6875Z" fill="#F5F5F7"/>
<path d="M121.312 19.2988C121.78 19.2988 122.127 19.3918 122.352 19.5778C122.577 19.7646 122.689 20.0466 122.689 20.4263C122.689 20.7805 122.589 21.0395 122.393 21.2055C122.194 21.3692 121.947 21.4668 121.653 21.4984L122.78 23.2368H122.122L121.05 21.5437H120.402V23.2368H119.789V19.2996L121.312 19.2988ZM121.043 21.0449C121.179 21.0449 121.31 21.0411 121.434 21.0326C121.556 21.0242 121.667 20.9973 121.762 20.9558C121.859 20.9135 121.936 20.8497 121.992 20.7629C122.049 20.676 122.079 20.5538 122.079 20.3955C122.079 20.2649 122.052 20.1588 122.002 20.0804C121.95 20.0036 121.884 19.9436 121.803 19.9006C121.722 19.8591 121.629 19.8299 121.523 19.816C121.42 19.8014 121.316 19.7938 121.213 19.7938H120.403V21.0449H121.043Z" fill="#F5F5F7"/>
<path d="M121.093 24.613C119.254 24.613 117.758 23.1174 117.758 21.2776C117.758 19.4377 119.254 17.9414 121.093 17.9414C122.931 17.9414 124.426 19.4377 124.426 21.2776C124.426 23.1174 122.93 24.613 121.093 24.613ZM121.093 18.4725C119.546 18.4725 118.289 19.7305 118.289 21.2768C118.289 22.8231 119.547 24.0804 121.093 24.0804C122.637 24.0804 123.895 22.8223 123.895 21.2768C123.895 19.7305 122.636 18.4725 121.093 18.4725Z" fill="#F5F5F7"/>
</svg>
