<svg width="125" height="25" viewBox="0 0 125 25" fill="none" xmlns="http://www.w3.org/2000/svg">
<path d="M114.28 24.6718C114.706 24.6718 115.051 24.3275 115.051 23.9009V9.82922C115.051 9.82922 115.051 9.81615 115.051 9.81C115.051 9.3143 115.005 8.73483 115.366 8.34212C115.74 7.89868 116.351 7.9909 116.868 8.13154L116.865 8.12924C117.439 8.30215 118.064 8.35749 118.714 8.25527C120.577 7.96247 122.032 6.4062 122.197 4.52561C122.419 1.96335 120.315 -0.168548 117.763 0.0105184C115.909 0.140399 114.352 1.5322 113.991 3.35668C113.836 4.14366 113.92 4.89143 114.164 5.56312L114.155 5.55544C114.3 5.94662 114.402 6.31013 114.33 6.76894C114.271 7.14168 113.934 7.54131 113.459 7.5905C113.101 7.62816 112.822 7.59741 112.439 7.62662C111.184 7.72268 110.18 8.66951 110.18 9.82845V23.8756C110.18 24.3152 110.536 24.671 110.975 24.671L114.28 24.6718Z" fill="#1D1D1F"/>
<path d="M100.297 7.1958C98.3338 7.1958 96.6348 7.80755 95.2201 9.03719C93.8038 7.80755 92.111 7.1958 90.1479 7.1958C88.134 7.1958 86.4604 7.68535 85.1217 8.69673C83.5065 9.91331 82.7031 11.6586 82.7031 13.9442V23.8805C82.7031 23.8805 82.7031 24.2671 82.9412 24.4538C82.9412 24.4538 83.1478 24.6721 83.495 24.6721H86.6548C87.0541 24.6721 87.2469 24.4408 87.2469 24.4408C87.472 24.2287 87.472 23.8805 87.472 23.8805V12.1605C87.472 11.4719 87.73 10.8916 88.2638 10.4213C88.7915 9.94482 89.4343 9.70043 90.1747 9.70043C90.9151 9.70043 91.5711 9.94482 92.0857 10.4213C92.6264 10.8916 92.8837 11.4711 92.8837 12.1605V23.8798C92.8837 23.8798 92.8967 24.2602 93.1348 24.4661C93.1348 24.4661 93.3207 24.659 93.6947 24.6721H96.7831C97.1694 24.679 97.3499 24.46 97.3499 24.46C97.6003 24.2217 97.588 23.8805 97.588 23.8805V12.1605C97.588 11.4719 97.8453 10.8916 98.3798 10.4213C98.9136 9.94482 99.5312 9.70043 100.278 9.70043C101.005 9.70043 101.642 9.94482 102.17 10.4213C102.698 10.8916 102.955 11.4711 102.955 12.1605V23.8798C102.955 23.8798 102.98 24.646 103.759 24.6713H106.907C107.705 24.6713 107.718 23.8798 107.718 23.8798V13.9442C107.763 12.5732 107.473 11.5103 106.997 10.5835C105.838 8.32246 103.605 7.1958 100.297 7.1958Z" fill="#1D1D1F"/>
<path d="M17.6007 7.23315C15.6314 7.23315 13.9517 7.8449 12.5292 9.0684C11.1137 7.8449 9.42093 7.23315 7.45779 7.23315C5.4501 7.23315 3.77037 7.72885 2.42551 8.73332C0.81644 9.94375 0 11.6952 0 13.9885V23.8787C0 23.8787 0.0130569 24.2652 0.244241 24.452C0.244241 24.452 0.456223 24.6703 0.804151 24.6703H3.96392C4.36331 24.6703 4.56223 24.4389 4.56223 24.4389C4.79418 24.2268 4.76807 23.8787 4.76807 23.8787V12.1978C4.76807 11.5154 5.03842 10.9359 5.56608 10.4525C6.0945 9.98218 6.73121 9.7447 7.47776 9.7447C8.22431 9.7447 8.87408 9.98295 9.41479 10.4525C9.92324 10.9352 10.1997 11.5154 10.1997 12.1978V23.8787C10.1997 23.8787 10.2059 24.2591 10.4378 24.4651C10.4378 24.4651 10.6437 24.658 10.9977 24.671H14.0999C14.4993 24.6779 14.6783 24.4589 14.6783 24.4589C14.9033 24.2207 14.9033 23.8794 14.9033 23.8794V12.1978C14.9033 11.5154 15.1544 10.9359 15.676 10.4525C16.1975 9.98218 16.8534 9.7447 17.5807 9.7447C18.3142 9.7447 18.9448 9.98295 19.4724 10.4525C19.9939 10.9352 20.2574 11.5154 20.2574 12.1978V23.8787C20.2574 23.8787 20.2766 24.6449 21.0615 24.6703H24.2152C25.007 24.6703 25.0324 23.8787 25.0324 23.8787V13.9885C25.0777 12.6036 24.7881 11.5477 24.305 10.6139C23.1414 8.36058 20.9148 7.23315 17.6007 7.23315Z" fill="#1D1D1F"/>
<path d="M59.8252 9.28869C58.2745 7.91072 56.4151 7.22827 54.233 7.22827C52.0579 7.22827 50.1854 7.90457 48.6278 9.28869C47.0963 10.6667 46.3497 12.3152 46.3881 14.2603V23.8807C46.3881 23.8807 46.3943 24.6723 47.1923 24.6723H50.2622C51.0663 24.6723 51.054 23.8807 51.054 23.8807V12.4765C51.041 11.7288 51.2983 11.021 51.9358 10.4668C52.5663 9.90659 53.339 9.623 54.2399 9.623C55.1217 9.623 55.8935 9.90659 56.5372 10.4538C57.1808 11.014 57.432 11.7418 57.425 12.4566V17.4797V18.0522V23.8799C57.425 23.8799 57.4442 24.6715 58.2292 24.6715H61.2607C61.6278 24.6715 61.839 24.4402 61.839 24.4402C62.0963 24.1958 62.0641 23.8277 62.0641 23.8277V14.2595C62.1225 12.3152 61.3759 10.6667 59.8252 9.28869Z" fill="#1D1D1F"/>
<path d="M80.2354 14.1754C80.2938 12.2441 79.5534 10.5825 77.9957 9.20455C76.452 7.83273 74.5856 7.13721 72.4105 7.13721C70.2292 7.13721 68.369 7.83273 66.8114 9.20455C65.2607 10.5825 64.508 12.2372 64.5656 14.1754V23.8796C64.5656 23.8796 64.5794 24.6712 65.3705 24.6712H68.4396C69.2507 24.6712 69.2315 23.8796 69.2315 23.8796V19.2015H75.5956V23.8796C75.5956 23.8796 75.6209 24.6712 76.4128 24.6712H79.4312C79.7984 24.6712 80.0234 24.4398 80.0234 24.4398C80.2876 24.1954 80.2354 23.8273 80.2354 23.8273V14.1754ZM75.5956 16.0713H69.2315V12.3978C69.2184 11.6508 69.4757 10.9422 70.1194 10.3819C70.7492 9.82782 71.5149 9.545 72.4166 9.545C73.3114 9.545 74.0641 9.82859 74.72 10.3758C75.3506 10.936 75.6148 11.67 75.5956 12.3916V16.0713Z" fill="#1D1D1F"/>
<path d="M35.7091 7.14355C31.1269 7.14355 27.6776 10.1762 27.375 13.7952V18.3548C27.6838 22.0061 31.0947 25.0126 35.7091 24.9995C40.246 25.0387 43.8628 22.0691 44.0686 18.3548V13.7952C43.8559 10.1247 40.2844 7.14355 35.7091 7.14355ZM39.2414 19.6875C39.2798 21.316 37.6454 22.4941 35.7084 22.4941C33.7844 22.4941 32.2199 21.2453 32.2199 19.6875V12.4495C32.2199 10.8202 33.8804 9.67432 35.7084 9.64819C37.7483 9.65433 39.2414 10.8909 39.2414 12.4495V19.6875Z" fill="#1D1D1F"/>
<path d="M121.308 19.2986C121.776 19.2986 122.123 19.3916 122.348 19.5776C122.573 19.7643 122.685 20.0464 122.685 20.426C122.685 20.7803 122.585 21.0393 122.389 21.2053C122.19 21.369 121.943 21.4666 121.649 21.4981L122.776 23.2365H122.118L121.046 21.5435H120.398V23.2365H119.785V19.2994L121.308 19.2986ZM121.039 21.0447C121.175 21.0447 121.306 21.0408 121.43 21.0324C121.552 21.0239 121.663 20.997 121.758 20.9555C121.855 20.9133 121.932 20.8495 121.988 20.7626C122.046 20.6758 122.075 20.5536 122.075 20.3953C122.075 20.2646 122.048 20.1586 121.998 20.0802C121.946 20.0033 121.88 19.9434 121.799 19.9003C121.718 19.8588 121.625 19.8296 121.519 19.8158C121.416 19.8012 121.312 19.7935 121.209 19.7935H120.399V21.0447H121.039Z" fill="#1D1D1F"/>
<path d="M121.089 24.6127C119.25 24.6127 117.754 23.1172 117.754 21.2773C117.754 19.4375 119.25 17.9412 121.089 17.9412C122.927 17.9412 124.422 19.4375 124.422 21.2773C124.422 23.1172 122.926 24.6127 121.089 24.6127ZM121.089 18.4722C119.542 18.4722 118.285 19.7303 118.285 21.2766C118.285 22.8228 119.543 24.0802 121.089 24.0802C122.633 24.0802 123.891 22.8221 123.891 21.2766C123.891 19.7303 122.633 18.4722 121.089 18.4722Z" fill="#1D1D1F"/>
</svg>
