<svg width="203" height="41" viewBox="0 0 203 41" fill="none" xmlns="http://www.w3.org/2000/svg">
<g opacity="0.6">
<path d="M186.455 40.2522C187.15 40.2522 187.713 39.6905 187.713 38.9946V16.0365C187.713 16.0365 187.713 16.0151 187.713 16.0051C187.713 15.1964 187.639 14.251 188.227 13.6102C188.837 12.8868 189.834 13.0372 190.678 13.2667L190.673 13.2629C191.609 13.545 192.629 13.6353 193.689 13.4686C196.729 12.9908 199.103 10.4518 199.372 7.38358C199.735 3.20321 196.301 -0.274988 192.137 0.0171608C189.114 0.229063 186.572 2.4998 185.983 5.47646C185.73 6.76041 185.868 7.98041 186.265 9.07629L186.252 9.06375C186.488 9.70196 186.654 10.295 186.537 11.0436C186.441 11.6517 185.891 12.3037 185.116 12.384C184.531 12.4454 184.076 12.3952 183.451 12.4429C181.405 12.5996 179.766 14.1444 179.766 16.0352V38.9532C179.766 39.6704 180.347 40.251 181.064 40.251L186.455 40.2522Z" fill="#F5F5F7"/>
<path d="M163.634 11.7402C160.431 11.7402 157.66 12.7383 155.351 14.7445C153.041 12.7383 150.279 11.7402 147.076 11.7402C143.79 11.7402 141.06 12.5389 138.876 14.189C136.24 16.1739 134.93 19.0214 134.93 22.7504V38.9615C134.93 38.9615 134.93 39.5922 135.318 39.8969C135.318 39.8969 135.655 40.253 136.222 40.253H141.377C142.028 40.253 142.343 39.8756 142.343 39.8756C142.71 39.5295 142.71 38.9615 142.71 38.9615V19.8402C142.71 18.7167 143.131 17.77 144.002 17.0027C144.863 16.2253 145.912 15.8266 147.12 15.8266C148.328 15.8266 149.398 16.2253 150.237 17.0027C151.12 17.77 151.539 18.7154 151.539 19.8402V38.9602C151.539 38.9602 151.561 39.5809 151.949 39.9169C151.949 39.9169 152.252 40.2317 152.863 40.253H157.901C158.532 40.2643 158.826 39.9069 158.826 39.9069C159.235 39.5182 159.215 38.9615 159.215 38.9615V19.8402C159.215 18.7167 159.634 17.77 160.507 17.0027C161.377 16.2253 162.385 15.8266 163.604 15.8266C164.79 15.8266 165.828 16.2253 166.691 17.0027C167.551 17.77 167.971 18.7154 167.971 19.8402V38.9602C167.971 38.9602 168.013 40.2103 169.283 40.2517H174.418C175.72 40.2517 175.742 38.9602 175.742 38.9602V22.7504C175.816 20.5135 175.342 18.7794 174.566 17.2672C172.675 13.5784 169.031 11.7402 163.634 11.7402Z" fill="#F5F5F7"/>
<path d="M28.7159 11.8008C25.503 11.8008 22.7624 12.7989 20.4417 14.795C18.1323 12.7989 15.3704 11.8008 12.1675 11.8008C8.89195 11.8008 6.15143 12.6095 3.95727 14.2483C1.33204 16.2231 0 19.0807 0 22.8222V38.9581C0 38.9581 0.0213026 39.5888 0.398484 39.8935C0.398484 39.8935 0.744337 40.2496 1.31199 40.2496H6.46721C7.11882 40.2496 7.44337 39.8722 7.44337 39.8722C7.82181 39.5261 7.7792 38.9581 7.7792 38.9581V19.9007C7.7792 18.7873 8.22029 17.8419 9.08117 17.0532C9.9433 16.2858 10.9821 15.8984 12.2001 15.8984C13.4181 15.8984 14.4782 16.2871 15.3604 17.0532C16.19 17.8406 16.6411 18.7873 16.6411 19.9007V38.9581C16.6411 38.9581 16.6511 39.5788 17.0295 39.9148C17.0295 39.9148 17.3654 40.2295 17.943 40.2508H23.0043C23.6559 40.2621 23.9479 39.9048 23.9479 39.9048C24.315 39.5161 24.315 38.9594 24.315 38.9594V19.9007C24.315 18.7873 24.7248 17.8419 25.5756 17.0532C26.4265 16.2858 27.4966 15.8984 28.6833 15.8984C29.88 15.8984 30.9088 16.2871 31.7697 17.0532C32.6205 17.8406 33.0503 18.7873 33.0503 19.9007V38.9581C33.0503 38.9581 33.0817 40.2082 34.3623 40.2496H39.5075C40.7995 40.2496 40.8408 38.9581 40.8408 38.9581V22.8222C40.9148 20.5627 40.4423 18.8399 39.6541 17.3165C37.7557 13.6402 34.123 11.8008 28.7159 11.8008Z" fill="#F5F5F7"/>
<path d="M97.6049 15.1546C95.0749 12.9064 92.0411 11.793 88.4811 11.793C84.9323 11.793 81.8773 12.8964 79.336 15.1546C76.8373 17.4027 75.6193 20.0923 75.682 23.2658V38.9616C75.682 38.9616 75.692 40.253 76.994 40.253H82.0026C83.3146 40.253 83.2945 38.9616 83.2945 38.9616V20.3556C83.2732 19.1356 83.693 17.9808 84.7331 17.0767C85.7619 16.1627 87.0225 15.7 88.4924 15.7C89.9309 15.7 91.1903 16.1627 92.2404 17.0554C93.2904 17.9695 93.7002 19.1569 93.6889 20.323V28.5182V29.4523V38.9603C93.6889 38.9603 93.7203 40.2518 95.0009 40.2518H99.9469C100.546 40.2518 100.89 39.8744 100.89 39.8744C101.31 39.4757 101.258 38.8751 101.258 38.8751V23.2645C101.353 20.0923 100.135 17.4027 97.6049 15.1546Z" fill="#F5F5F7"/>
<path d="M130.907 23.1274C131.002 19.9764 129.794 17.2656 127.253 15.0174C124.734 12.7793 121.689 11.6445 118.14 11.6445C114.581 11.6445 111.546 12.7793 109.005 15.0174C106.475 17.2656 105.247 19.9651 105.341 23.1274V38.9598C105.341 38.9598 105.364 40.2513 106.654 40.2513H111.662C112.985 40.2513 112.953 38.9598 112.953 38.9598V31.3276H123.337V38.9598C123.337 38.9598 123.378 40.2513 124.67 40.2513H129.595C130.194 40.2513 130.561 39.8739 130.561 39.8739C130.992 39.4752 130.907 38.8746 130.907 38.8746V23.1274ZM123.337 26.2206H112.953V20.2272C112.932 19.0084 113.352 17.8524 114.402 16.9383C115.43 16.0343 116.679 15.5729 118.15 15.5729C119.61 15.5729 120.838 16.0355 121.908 16.9283C122.937 17.8424 123.368 19.0398 123.337 20.2172V26.2206Z" fill="#F5F5F7"/>
<path d="M58.2614 11.6543C50.7854 11.6543 45.1578 16.602 44.6641 22.5064V29.9456C45.1678 35.9027 50.7328 40.8078 58.2614 40.7864C65.6634 40.8504 71.5642 36.0055 71.9 29.9456V22.5064C71.5529 16.518 65.7261 11.6543 58.2614 11.6543ZM64.0244 32.1198C64.087 34.7767 61.4204 36.6989 58.2601 36.6989C55.1211 36.6989 52.5686 34.6614 52.5686 32.1198V20.3109C52.5686 17.6528 55.2778 15.7833 58.2601 15.7406C61.5883 15.7507 64.0244 17.7681 64.0244 20.3109V32.1198Z" fill="#F5F5F7"/>
<path d="M197.915 31.4863C198.678 31.4863 199.244 31.638 199.611 31.9415C199.978 32.2462 200.161 32.7063 200.161 33.3257C200.161 33.9038 199.998 34.3263 199.678 34.5971C199.353 34.8642 198.951 35.0235 198.471 35.0749L200.309 37.9111H199.235L197.487 35.1489H196.43V37.9111H195.43V31.4876L197.915 31.4863ZM197.475 34.3351C197.698 34.3351 197.911 34.3288 198.114 34.315C198.313 34.3012 198.494 34.2574 198.649 34.1896C198.807 34.1207 198.932 34.0166 199.024 33.8749C199.118 33.7332 199.165 33.5339 199.165 33.2756C199.165 33.0624 199.121 32.8894 199.04 32.7615C198.956 32.6361 198.847 32.5383 198.715 32.4681C198.584 32.4004 198.431 32.3527 198.259 32.3302C198.09 32.3064 197.921 32.2938 197.753 32.2938H196.431V34.3351H197.475Z" fill="#F5F5F7"/>
<path d="M197.558 40.1562C194.558 40.1562 192.117 37.7162 192.117 34.7145C192.117 31.7127 194.558 29.2715 197.558 29.2715C200.557 29.2715 202.997 31.7127 202.997 34.7145C202.997 37.7162 200.556 40.1562 197.558 40.1562ZM197.558 30.1379C195.034 30.1379 192.984 32.1905 192.984 34.7132C192.984 37.236 195.036 39.2873 197.558 39.2873C200.078 39.2873 202.129 37.2347 202.129 34.7132C202.129 32.1905 200.077 30.1379 197.558 30.1379Z" fill="#F5F5F7"/>
</g>
</svg>
