<svg width="40" height="40" viewBox="0 0 40 40" fill="none" xmlns="http://www.w3.org/2000/svg">
<circle cx="20" cy="20" r="20" fill="black"/>
<path d="M22.8991 13.049C23.6439 13.0841 24.1525 13.203 24.5971 13.3777C25.0573 13.557 25.4474 13.7977 25.8355 14.1872C26.2235 14.5766 26.4625 14.967 26.6406 15.4278C26.8129 15.8735 26.9297 16.3825 26.9626 17.1277C26.9955 17.873 27.0028 18.1125 26.9991 20.0134C26.9955 21.9143 26.9871 22.1526 26.951 22.8994C26.9154 23.6441 26.797 24.1525 26.6223 24.5973C26.4426 25.0575 26.2023 25.4474 25.8126 25.8356C25.423 26.2238 25.033 26.4623 24.571 26.6406C24.1258 26.8127 23.6166 26.93 22.8715 26.9626C22.1264 26.9952 21.8866 27.0028 19.9862 26.9992C18.0858 26.9955 17.8466 26.9871 17.0999 26.9517C16.3533 26.9163 15.8475 26.797 15.4026 26.6231C14.9424 26.4431 14.5522 26.2031 14.1642 25.8134C13.7763 25.4236 13.5375 25.033 13.3595 24.5718C13.187 24.1266 13.0698 23.6175 13.0375 22.8729C13.0049 22.1257 12.9972 21.8872 13.0008 19.9865C13.0045 18.0859 13.013 17.8476 13.0484 17.1011C13.0838 16.3546 13.2024 15.8477 13.377 15.4026C13.5569 14.9425 13.797 14.5528 14.1865 14.1643C14.576 13.7758 14.9669 13.5371 15.4279 13.3596C15.8734 13.1873 16.3823 13.0698 17.1274 13.0376C17.8725 13.0054 18.1123 12.9972 20.0134 13.0008C21.9144 13.0044 22.1524 13.0126 22.8991 13.049ZM22.8173 25.7033C23.4998 25.6736 23.8704 25.5602 24.1174 25.4653C24.4444 25.3393 24.6774 25.187 24.9235 24.9433C25.1696 24.6995 25.3208 24.4657 25.4485 24.1394C25.5444 23.8924 25.6599 23.5223 25.6918 22.8398C25.7265 22.1021 25.7338 21.8806 25.7379 20.0117C25.7419 18.1429 25.7348 17.9217 25.7025 17.1837C25.6733 16.5018 25.5592 16.1308 25.4645 15.884C25.3385 15.5565 25.1867 15.324 24.9424 15.078C24.6981 14.832 24.465 14.6805 24.1384 14.5528C23.8917 14.4565 23.5215 14.342 22.8393 14.3095C22.1011 14.2745 21.8799 14.2675 20.0113 14.2635C18.1427 14.2594 17.9209 14.2664 17.1824 14.2989C16.5004 14.3286 16.1293 14.4415 15.8828 14.5369C15.5556 14.6629 15.3228 14.8142 15.0768 15.0589C14.8308 15.3037 14.6792 15.5359 14.5515 15.8632C14.455 16.1092 14.3405 16.4792 14.3083 17.1619C14.2732 17.9001 14.2652 18.1215 14.2618 19.9899C14.2585 21.8583 14.265 22.0802 14.2974 22.8179C14.3272 23.5004 14.4403 23.8711 14.5354 24.1184C14.6614 24.4453 14.8133 24.6784 15.0577 24.9242C15.3022 25.1701 15.535 25.3215 15.8618 25.4492C16.1082 25.5454 16.4787 25.6602 17.1604 25.6927C17.8986 25.7274 18.1198 25.7347 19.9891 25.7387C21.8584 25.7428 22.0789 25.7352 22.8172 25.7033M17.1107 16.2587C17.1104 16.4249 17.0609 16.5872 16.9683 16.7252C16.8758 16.8632 16.7444 16.9707 16.5908 17.034C16.4372 17.0973 16.2682 17.1136 16.1053 17.0809C15.9424 17.0482 15.7929 16.9679 15.6756 16.8502C15.5584 16.7325 15.4786 16.5827 15.4465 16.4197C15.4144 16.2567 15.4314 16.0878 15.4953 15.9344C15.5591 15.781 15.6671 15.65 15.8054 15.558C15.9437 15.466 16.1062 15.417 16.2724 15.4173C16.4951 15.4178 16.7086 15.5067 16.8658 15.6645C17.023 15.8223 17.1111 16.036 17.1107 16.2587ZM23.5942 20.007C23.5903 21.9922 21.978 23.5979 19.9932 23.5941C18.0084 23.5903 16.4016 21.9782 16.4054 19.993C16.4092 18.0078 18.0218 16.4017 20.0069 16.4056C21.992 16.4095 23.598 18.0221 23.5942 20.007ZM22.3333 20.0045C22.3342 19.543 22.1983 19.0916 21.9426 18.7073C21.687 18.3231 21.3232 18.0233 20.8971 17.8458C20.4711 17.6684 20.002 17.6213 19.5492 17.7104C19.0964 17.7995 18.6802 18.0209 18.3532 18.3466C18.0262 18.6723 17.8032 19.0876 17.7123 19.5401C17.6213 19.9925 17.6666 20.4618 17.8424 20.8885C18.0181 21.3152 18.3165 21.6803 18.6997 21.9374C19.0829 22.1946 19.5338 22.3323 19.9953 22.3332C20.3017 22.3339 20.6053 22.2741 20.8886 22.1575C21.172 22.0408 21.4296 21.8694 21.6467 21.6531C21.8638 21.4369 22.0362 21.18 22.154 20.8971C22.2718 20.6142 22.3328 20.3109 22.3333 20.0045Z" fill="white"/>
</svg>
