<svg width="907" height="375" viewBox="0 0 907 375" fill="none" xmlns="http://www.w3.org/2000/svg">
<path d="M564.3 26.8562C555.211 36.5637 547.718 45.6973 540.533 53.9069C528.383 68.8162 520.428 82.6777 512.938 101.577C511.898 104.874 511.276 108.021 510.726 111.283C508.255 127.193 507.948 143.814 509.047 161.159C510.478 178.849 514.89 195.977 519.588 213.249C524.063 228.818 529.625 243.795 537.54 258.433C548.471 275.767 559.495 291.526 570.216 307.332L570.146 307.227C580.08 322.64 593.951 334.22 607.775 342.811C614.729 347.152 621.946 350.979 629.294 354.475C652.299 364.92 676.474 368.337 700.064 372.5C717.864 375.672 736.192 374.516 752.924 374.328C764.201 374.401 774.318 371.346 784 369.346C784.253 369.292 784.505 369.237 784.755 369.182C787.872 368.485 789.686 367.842 791.074 367.439C800.351 364.889 812.54 358.836 822.929 354.332C827.756 352.237 832.103 349.953 835.601 347.926C846.906 341.487 860.769 330.755 872.575 318.066C880.212 310.128 883.648 299.976 887.198 292.199C891.117 283.346 893.396 274.98 895.025 268.287C897.547 257.825 899.273 247.087 899.698 243.002C900.322 239.196 900.903 237.17 901.08 236.191C901.082 236.18 901.084 236.168 901.085 236.157C901.295 234.99 901.581 233.182 901.884 231.278C902.435 227.887 902.897 224.117 903.049 222.962C903.079 222.69 903.065 224.392 903.547 219.955C903.583 219.565 903.44 219.901 903.829 216.202C903.92 215.432 904.776 207.718 905.318 202.768C905.471 201.367 905.583 200.212 905.65 199.438C906.805 187.607 907.242 161.027 901.907 144.926C901.825 144.742 901.709 144.455 901.591 144.154C900.871 142.292 900.488 141.017 899.666 138.896C899.231 137.769 898.502 136.162 898.356 135.805C897.79 134.31 895.25 127.696 895.646 130.307C892.641 123.597 893.707 125.498 893.787 125.274C890.329 118.065 888.094 114.915 887.39 112.926C883.697 106.411 879.675 100.111 875.365 94.0047C858.682 69.0091 827.561 62.8468 802.597 56.9711C797.878 55.831 793.488 55.587 789.151 55.424C789.141 55.3672 789.131 55.3105 789.12 55.2537C777.453 55.2494 773.61 55.2696 767.097 55.9036C763.091 56.0603 759.094 56.2647 755.105 56.495C743.719 57.3881 732.421 58.4651 721.114 59.5278C707.999 60.649 694.683 63.1111 682.161 65.2379C663.803 68.472 646.524 72.771 628.767 75.7452C616.728 77.6533 605.877 82.4033 595.164 85.0478C573.907 90.7978 553.21 92.4169 529.86 95.7704C519.394 98.1876 507.321 99.2105 495.849 101.109C482.17 103.217 468.463 104.943 454.74 106.189C450.529 106.557 449.488 106.792 442.562 107.267C438.074 107.552 432.345 107.849 426.708 107.804C422.507 107.74 418.163 107.736 413.95 107.792C404.921 107.889 391.668 108.46 381.783 108.566C379.547 108.589 377.94 108.508 377.693 108.509C376.218 108.506 376.154 108.626 374.724 108.614C373.032 108.597 370.974 108.462 369.034 108.388C365.179 108.248 361.174 107.91 358.259 107.473C355.491 107.068 353.488 106.777 353.046 106.714C348.518 106.082 347.498 106.062 347.124 106.011C342.079 105.326 343.982 105.484 342.725 105.317C336.196 104.468 331.546 104.105 322.59 102.814C322.823 102.94 323.057 103.066 323.291 103.192C316.407 102.473 320.978 102.724 319.576 102.52C319.015 102.392 304.138 101.011 302.977 100.988C301.341 100.872 300.353 100.83 299.733 100.816C298.821 100.795 298.7 100.835 298.493 100.822C297.647 100.741 287.526 100.074 282.343 100.126C276.223 100.151 283.42 100.545 281.899 100.568C281.638 100.562 275.249 100.45 274.394 100.534C273.445 100.613 278.966 100.666 278.882 100.707C278.817 100.72 269.664 100.834 271.419 100.973C272.815 101.086 285.26 101.08 287.913 101.276C288.348 101.3 287.521 101.426 287.907 101.445C288.546 101.477 293.685 101.644 299.649 102.056C308.314 102.626 318.647 103.744 319.421 103.817C317.947 103.586 316.466 103.36 314.988 103.139C316.967 103.333 318.94 103.536 320.914 103.749C318.115 103.381 315.313 103.031 312.503 102.703C316.752 102.494 329.242 104.546 329.711 104.915C329.923 105.071 322.224 104.484 329.321 105.548C328.236 105.448 327.152 105.351 326.062 105.255C323.837 104.933 321.61 104.621 319.38 104.321C320.873 104.449 322.365 104.581 323.857 104.719C323.318 104.616 322.769 104.513 322.227 104.411C318.056 103.872 313.877 103.373 309.685 102.927C307.523 102.763 307.961 102.922 306.476 102.818C303.464 102.612 301.257 102.484 299.626 102.389C291.193 101.971 298.059 102.056 287.858 101.675C286.118 101.679 284.378 101.696 282.642 101.723C283.26 101.472 277.868 101.518 271.389 101.377C272.164 101.466 272.934 101.556 273.711 101.647C264.289 101.649 245.474 101.569 250.568 101.227C248.443 101.187 246.321 101.127 244.198 101.041C242.461 100.865 240.755 100.674 239.022 100.464C238.96 100.456 238.899 100.449 238.837 100.442C236.29 100.254 233.736 100.118 231.193 100.036C231.18 100.077 231.167 100.118 231.153 100.159C233.178 100.231 235.216 100.338 237.241 100.477C235.714 100.499 234.193 100.54 232.654 100.599C231.174 100.513 229.671 100.445 228.165 100.396C234.45 100.442 226.179 100 224.158 99.8837C218.847 99.8488 215.461 100.277 213.696 100.386C212.854 100.389 203.057 100.85 206.92 100.936C201.901 101.327 196.916 101.871 192.008 102.302C190.093 102.521 188.188 102.721 186.292 102.878C190.435 102.815 178.486 103.771 187.306 103.321C193.928 102.851 195.574 102.411 198.75 102.089C201.624 101.785 203.159 101.744 206.314 101.458C217.927 100.39 228.536 100.307 238.971 101.122C247.399 101.779 255.798 101.981 264.845 102.013C268.795 102.03 272.401 102.103 275.068 102.119C278.081 102.139 274.306 101.944 278.147 102.026C282.179 102.121 283.061 102.278 284.12 102.304C284.786 102.321 286.894 102.263 288.832 102.335C292.123 102.453 296.034 102.669 299.589 102.935C304.624 103.308 308.895 103.74 309.558 103.799C310.845 103.803 333.184 106.247 334.239 106.444C334.802 106.508 333.69 105.934 338.53 107.025C340.061 107.237 341.587 107.452 343.112 107.669C342.875 107.552 342.639 107.435 342.403 107.319C351.41 108.883 348.321 108.273 357.027 109.544C357.328 109.589 357.633 109.633 357.94 109.679C376.705 112.245 404.593 109.669 426.688 110.103C428.297 110.117 429.995 110.081 431.594 110.035C436.651 109.865 438.632 109.859 444.653 109.461C450.258 109.136 464.844 107.382 461.705 108.103C474.117 106.429 476.177 106.717 482.349 105.524C483.12 105.477 483.865 105.432 484.625 105.384C489.709 104.493 492.149 104.206 496.241 103.638C497.572 103.451 499.026 103.247 500.83 102.984C504.021 102.526 500.312 102.804 506.783 102.157C508.017 101.959 509.229 101.766 510.463 101.571C510.171 101.55 509.87 101.529 509.577 101.508C516.736 100.557 517.16 100.462 516.392 100.805C519.822 100.274 523.23 99.7446 526.548 99.0592C526.974 99.0539 527.403 99.0449 527.827 99.0336C527.287 99.4434 513.292 101.319 496.274 103.852C472.817 107.617 443.602 109.947 437.27 110.077C434.291 110.264 430.595 110.46 426.685 110.453C413.25 110.33 396.094 110.812 388.132 110.972C383.976 111.059 382.139 111.285 376.112 111.28C370.09 111.298 362.587 110.694 359.491 110.251C359.025 110.192 358.482 110.121 357.888 110.034C344.599 107.863 299.679 102.652 332.653 106.794C331.65 106.751 330.653 106.71 329.647 106.67C315.963 104.754 320.911 105.481 309.49 104.394C307.063 104.177 302.953 103.791 299.546 103.566C296.185 103.339 293.506 103.263 293.818 103.467C295.716 103.579 297.601 103.697 299.528 103.829C306.706 104.318 313.921 104.94 320.041 105.621C320.81 105.694 329.957 106.937 334.66 107.516C338.906 108.033 336.039 107.267 345.206 108.935C352.082 109.489 355.976 110.419 357.789 110.721C357.796 110.722 357.803 110.723 357.809 110.724C360.851 111.202 361.221 111.032 364.313 111.258C367.675 111.474 370.031 111.659 370.485 111.679C375.122 112.037 399.593 111.455 400.726 111.337C399.74 111.326 398.754 111.315 397.767 111.304C404.135 111.093 402.808 111.329 404.484 111.315C405.728 111.286 406.978 111.259 408.226 111.234C407.729 111.202 407.234 111.17 406.741 111.139C414.267 111.014 408.513 111.221 419.207 111.116C421.784 111.101 424.39 111.082 426.679 111.074C430.32 111.041 433.185 110.835 433.565 110.835C433.757 110.831 431.645 111.021 434.393 110.927C438.925 110.782 446.799 110.22 447.659 109.998C449.896 109.846 449.703 110.001 450.004 109.981C451.299 109.996 473.513 107.772 477.47 107.168C483.488 106.416 489.871 105.517 496.376 104.508C501.766 103.669 507.2 102.888 512.602 102.147C513.826 101.979 513.031 101.997 514.261 101.828C516.246 101.58 526.316 100.229 527.743 99.8412C528.522 99.6854 529.563 99.4599 530.722 99.165C535.456 98.0859 541.823 97.5816 543.086 97.427C543.298 97.4094 540.035 97.8953 543.873 97.5096C548.131 97.0816 545.828 97.168 546.055 97.1415C554.699 96.1257 560.143 95.5216 566.009 94.6484C567.898 94.3686 571.379 93.6748 574.053 93.2298C574.358 93.1795 573.775 93.4017 574.075 93.3538C578.11 92.697 581.835 91.7122 583.55 91.3319C587.774 90.385 585.503 91.0352 585.724 90.9906C588.434 90.3992 592.021 89.5127 596.056 88.461C596.225 88.4167 596.395 88.3724 596.564 88.3281C608.079 85.3846 618.037 81.0232 629.372 79.234C636.4 78.0186 643.621 76.6278 651.559 74.9927C654.13 74.4642 657.145 73.7174 657.545 73.6332C658.755 73.3799 658.44 73.5817 661.944 72.8396C669.028 71.3549 675.604 69.8873 682.706 68.7397C683.023 68.6903 683.34 68.6401 683.658 68.5891C685.138 68.3502 685.748 68.1219 686.876 67.9264C690.642 67.2403 703.704 65.3335 703.874 64.9735C710.995 64.2577 715.825 63.495 721.43 62.9305C721.861 62.8879 722.295 62.8462 722.733 62.8057C737.252 61.4679 760.023 59.3981 774.633 58.8315C777.715 58.7064 779.142 58.577 780.868 58.5423C783.597 58.3653 798.086 58.7474 801.81 60.0941C802.215 60.1959 802.481 60.2613 802.573 60.2826C804.32 60.6788 803.36 60.0093 812.241 62.5245C817.5 63.8125 816.924 63.4966 818.016 63.7531C826.556 65.7166 834.595 68.8501 833.182 67.9951C842.938 71.3364 848.775 74.7839 852.576 76.676C852.431 76.8096 856.628 79.3385 861.173 83.1165C856.566 79.2723 857.663 78.7277 844.59 72.1915C844.381 72.0958 844.726 72.3926 844.518 72.2969C842.633 71.4142 838.657 69.6839 835.322 68.5411C831.988 67.4032 833.81 68.1202 832.475 67.6738C831.25 67.2773 831.326 67.1722 829.546 66.626C823.762 64.875 818.606 63.6035 815.301 62.7944C813.218 62.2889 810.863 61.8383 809.252 61.4539C807.337 60.9962 804.771 60.3776 801.922 59.6494C794.995 57.9532 786.622 58.0064 780.916 58.064C779.179 58.1 779.924 58.1866 776.177 58.3107C775.734 58.3282 774.132 58.2519 770.867 58.3843C767.601 58.5192 765.055 58.7386 762.971 58.8608C761.204 58.968 761.95 58.8035 758.355 59.0518C755.666 59.1562 728.459 61.611 721.375 62.3309C720.51 62.4146 719.955 62.4714 719.76 62.4921C717.12 62.7765 715.867 63.0693 714.256 63.232C713.966 63.2612 713.486 63.1667 712.488 63.2748C705.244 63.967 694.078 65.9787 682.581 67.9359C667.964 70.4763 652.891 74.1452 642.808 76.0206C638.252 76.9106 633.746 77.7467 629.249 78.5234C617.428 80.3956 606.762 85.0774 595.874 87.7657C575.162 93.3231 554.315 95.2863 531.541 98.239C531.219 98.2942 530.854 98.3649 530.536 98.4341C530.173 98.5117 529.805 98.5868 529.439 98.6582C529.802 98.5729 530.166 98.4839 530.526 98.3924C534.378 97.506 537.824 97.2354 541.421 96.804C541.438 96.7323 541.455 96.6607 541.472 96.5891C546.782 95.9907 546.091 96.2315 545.953 96.3466C547.902 96.0878 549.887 95.8203 551.817 95.5481C553.547 95.62 566.529 93.7708 573.173 92.5271C577.503 91.7723 582.628 90.8164 584.893 90.3081C589.666 89.2377 589.496 89.0897 589.875 89.0051C590.253 88.9131 592.815 88.3571 595.832 87.6055C597.823 87.1117 599.995 86.5227 601.865 85.9634C608.839 83.8839 609.373 83.1667 619.262 80.5277C622.449 79.6295 625.791 78.8686 629.205 78.2684C639.077 76.531 649.423 74.474 659.565 72.3464C656.936 72.6938 669.118 70.2881 674.665 69.1936C677.22 68.6881 679.856 68.1845 682.554 67.7602C694.647 65.716 707.906 63.2052 721.348 62.0457C743.078 60.0553 765.189 57.6422 785.303 57.5846C789.801 57.6054 793.291 57.6957 795.844 57.9739C797.255 58.1362 797.831 58.3396 799.79 58.6642C800.06 58.7197 800.273 58.6341 802.08 59.0219C802.554 59.1274 803.148 59.2653 803.899 59.4458C812.231 61.3339 833.364 66.7671 838.606 68.9462C852.294 74.0274 865.184 82.9427 873.61 95.2408C882.509 107.917 890.214 121.499 896.111 135.891C896.441 136.547 896.786 137.247 897.115 137.922C897.655 139.45 898.74 142.599 899.992 145.778C903.228 155.646 903.934 168.779 904.167 176.652C904.362 184.693 904.026 193.65 903.119 202.551C902.115 212.383 901.275 222.364 899.712 230.905C899.349 232.999 899.013 235.017 898.694 236.939C898.097 240.528 897.693 243.475 897.099 246.881C896.844 248.339 896.414 250.15 896.133 251.667C893.937 263.451 890.826 278.255 885.061 291.243C882.574 296.813 880.378 302.443 877.557 307.358C875.701 310.618 873.454 313.723 870.867 316.455C856.842 331.323 840.699 343.943 821.984 352.169C809.816 357.402 797.585 364.13 783.498 366.984C781.733 367.359 779.967 367.751 778.182 368.151C770.096 369.942 761.738 371.974 752.952 371.877C735.877 372.053 717.949 373.147 700.485 370.012C676.927 365.833 652.854 362.34 630.419 352.113C608.133 341.508 586.154 327.244 572.362 305.785L572.397 305.836C561.432 289.694 550.379 273.891 539.802 257.144C532.071 242.875 526.5 227.972 522.071 212.559C517.489 195.705 513.072 178.741 511.642 160.985C511.144 153.543 510.988 146.091 511.144 138.641C511.186 136.835 511.064 136.912 511.109 135.513C511.354 128.049 512.344 112.4 515.578 102.447C515.955 101.312 516.347 100.31 516.72 99.391C519.565 92.3014 525.224 81.9168 526.707 79.7947C522.698 86.9809 518.701 94.2136 515.754 102.505C510.756 121.335 510.901 140.526 511.845 159.545C511.886 160.179 511.929 160.632 511.968 160.963C512.051 161.656 512.119 161.821 512.133 161.985C512.585 166.469 512.085 163.669 512.91 170.128C512.982 172.344 517.307 191.814 516.539 189.549C517.15 192.016 519.66 202.424 522.504 212.439C524.989 221.328 528.135 229.75 529.199 232.599C529.891 234.449 529.29 233.182 529.425 233.55C530.015 235.144 530.439 235.808 531.009 237.216C532.471 241 536.613 250.456 537.576 252.206C538.127 253.301 539.005 255.009 540.128 256.958C543.315 262.195 547.991 268.932 550.361 272.542C553.364 277.064 552.664 276.301 555.274 280.194C557.333 283.258 555.185 279.855 559.843 286.657C562.146 290.025 570.127 301.896 572.089 304.753C572.203 304.918 572.29 305.045 572.387 305.186C572.525 305.387 572.587 305.476 572.695 305.632L572.665 305.587C574.459 308.309 576.619 311.227 579.402 314.61C583.676 320.245 595.019 330.592 600.922 334.587C601.268 334.838 602.037 335.539 602.901 336.135C604.695 337.365 604.234 336.865 605.609 337.768C606.578 338.614 621.589 347.672 630.608 351.716C633.166 352.935 635.202 353.765 636.195 354.169C639.284 355.414 641.43 356.254 643.162 356.846C644.535 357.309 644.708 357.234 646.111 357.684C646.537 357.824 650.194 359.092 653.913 360.096C657.407 361.151 670.857 364.096 672.425 364.358C673.44 364.565 672.307 364.429 675.312 365.032C678.052 365.577 679.872 365.804 681.435 366.096C685.06 366.774 689.097 367.596 692.946 368.264C696.598 368.897 698.987 369.285 700.567 369.532C703.828 370.027 703.734 369.918 704.184 369.986C706.06 370.24 706.791 370.456 707.411 370.536C710.009 370.898 716.406 371.451 718.739 371.545C721.641 371.694 722.874 371.61 725.952 371.665C728.241 371.707 732.883 371.834 738.08 371.707C742.828 371.608 747.908 371.398 752.956 371.45C760.895 371.555 768.642 369.838 775.317 368.364C778.665 367.615 779.145 367.389 780.163 367.161C781.35 366.894 782.421 366.665 783.388 366.467C786.872 365.749 788.994 365.208 790.195 364.862C799.044 362.49 811.997 355.902 821.736 351.601C824.377 350.43 826.739 349.266 828.695 348.254C832.657 346.538 848.687 336.574 856.506 329.4C857.427 328.606 856.512 329.279 857.534 328.411C859.975 326.31 859.858 326.636 861.071 325.525C861.638 324.998 862.904 323.689 864.539 322.086C866.713 319.955 868.69 317.919 870.445 316.057C875.771 310.379 878.244 305.063 879.983 301.439C881.603 297.947 883.044 294.455 884.578 291.027C893.017 271.705 895.778 250.825 899.173 230.813C900.859 221.324 901.551 211.8 902.491 202.489C904.134 185.059 904.073 167.753 900.804 151.181C900.445 149.607 900.173 148.073 899.376 146.052C897.883 142.248 896.141 137.243 893.706 131.961C893.553 131.755 893.4 131.547 893.244 131.337C893.176 131.046 893.111 130.766 893.045 130.485C889.191 122.065 887.607 118.886 882.809 110.757C882.386 110.047 880.885 108.051 880.347 106.588C875.112 98.8029 878.105 102.999 874.229 97.227C873.858 96.6859 873.481 96.1438 873.099 95.6007C869.413 90.3547 865.072 85.7866 860.202 81.8758C857.363 79.4121 868.933 90.1922 869.239 91.302C870.29 92.5577 871.474 93.8297 872.413 95.119C872.568 95.3313 872.721 95.5451 872.873 95.7597C875.395 99.3151 877.521 102.782 878.164 103.535C881.254 108.661 877.319 102.342 877.593 103.041C879.819 106.363 881.963 109.756 884.006 113.201C884.903 115.044 895.122 134.644 893.967 133.511C894.728 135.102 895.464 136.698 896.181 138.309C897.185 141.288 898.041 143.929 899 146.219C900.5 150.336 901.225 154.173 902.115 160.231C901.966 159.489 901.814 158.767 901.654 158.03C901.731 158.243 902.588 167.301 902.493 164.053C902.952 173.36 903.402 172.974 903.136 181.321C903.036 186.278 903.398 183.295 903.028 192.17C902.867 195.294 902.569 198.859 902.177 202.458C901.911 204.905 901.655 207.349 901.424 209.708C901.293 211.045 901.364 211.634 901.246 212.828C901.128 214.02 900.946 214.588 900.793 216.033C900.484 219.015 900.092 222.907 899.808 224.772C899.607 226.133 899.262 227.954 898.748 230.74C898.633 231.361 898.508 232.057 898.382 232.789C896.015 246.672 896.858 242.508 896.541 244.717C896.188 247.087 895.703 248.756 894.843 253.461C894.756 253.934 895.116 252.735 894.818 254.272C894.571 255.505 894.333 256.105 893.451 260.188C893.463 261.875 886.546 286.882 884.266 290.323C884.198 290.475 884.129 290.632 884.057 290.794C881.593 296.362 876.691 308.562 872.304 313.287C871.628 314.118 870.886 314.936 870.101 315.733C869.097 316.752 868.062 317.775 867.041 318.813C861.149 324.915 850.903 333.943 841.887 339.898C836.624 343.508 828.349 348.371 821.59 351.267C818.147 352.778 815.273 354.071 813.597 354.749C801.337 360.385 798.171 361.612 797.227 361.998C794.608 362.97 793.345 363.291 789.962 364.289C787.786 364.919 785.563 365.475 783.279 365.957C773.877 367.865 763.865 370.889 752.964 370.811C736.104 370.981 717.938 372.095 700.658 368.991C680.522 365.598 660.959 362.082 644.57 356.652C639.911 355.105 635.309 353.348 630.843 351.222C608.672 340.676 586.855 326.527 573.18 305.252L573.201 305.284C562.259 289.181 551.162 273.306 540.648 256.662C532.994 242.541 527.413 227.631 523.011 212.298C518.44 195.486 514.035 178.525 512.621 160.92C511.594 144.006 511.782 126.999 514.707 110.164C514.813 109.905 514.92 109.65 515.027 109.398C512.795 121.092 512.279 134.938 512.393 146.543C512.44 150.885 512.584 155.812 512.912 160.9C513.818 174.084 517.056 187.96 519.217 195.831C518.142 191.359 516.431 184.052 516.666 184.14C518.35 192.197 520.346 200.177 522.501 208.106C522.348 207.893 522.195 207.677 522.044 207.466C522.463 209.047 522.892 210.629 523.329 212.21C525.206 218.987 527.495 225.721 529.97 232.261C530.504 233.663 530.046 232.702 530.516 233.92C531.047 235.283 530.766 234.328 530.866 234.583C532.219 238.019 532.588 239.077 532.758 239.494C533.208 240.554 532.924 239.706 534.262 242.758C536.756 248.417 538.616 252.474 538.279 251.011C539.163 252.797 540.095 254.593 541.085 256.335C541.092 256.357 541.1 256.378 541.107 256.4C541.175 256.614 541.262 256.854 541.367 257.119C541.465 257.374 541.532 257.573 541.63 257.822C548.589 267.992 551.235 272.958 555.456 278.28C556.634 280.176 557.813 282.069 558.994 283.963C559.78 284.947 560.569 285.936 561.353 286.916C561.421 287.166 561.485 287.41 561.556 287.664C565.471 293.366 569.522 299.337 573.454 305.111L573.436 305.085C576.284 309.491 579.454 313.595 582.753 317.258C588.26 323.193 589.767 324.451 595.24 329.055C607.869 338.719 595.272 329.223 606.156 336.667C605.525 336.371 604.899 336.073 604.277 335.771C606.054 337.036 607.87 338.268 609.699 339.458C611.032 340.193 612.38 340.913 613.726 341.61C619.317 345.406 623.403 347.048 624.209 347.475C624.753 347.747 626.304 348.787 630.973 350.951C631.944 351.399 633.067 351.886 634.351 352.397C631.137 351.436 639.999 354.755 640.734 354.919C641.39 355.223 650.068 358.164 653.661 359.077C656.472 359.867 662.524 361.305 666.755 362.236C670.491 363.064 670.089 363.088 670.362 363.15C674.97 364.125 672.097 363.432 675.435 364.104C678.772 364.766 681.345 365.351 682.069 365.477C682.433 365.54 681.241 365.202 682.903 365.501C687.37 366.31 695.432 367.81 700.547 368.669C700.6 368.678 700.654 368.687 700.708 368.696C702.516 368.998 704.764 369.241 706.748 369.488C709.889 369.875 711.35 370.131 713.183 370.288C713.814 370.339 717.903 370.494 722.958 370.669C723.919 370.703 726.749 371.201 730.501 370.594C730.791 370.677 731.081 370.759 731.37 370.84C742.423 370.85 748.21 370.272 752.969 370.333C755.589 370.348 757.901 370.262 760.569 370.174C772.859 368.28 764.373 369.306 765.723 369.084C766.589 368.928 770.545 368.21 770.973 368.106C771.737 367.937 771.587 367.892 772.425 367.712C780.644 365.898 782.462 365.54 783.171 365.448C783.79 365.358 783.548 365.486 785.814 364.992C797.388 362.027 805.953 358.449 786.261 364.76C786.251 364.72 786.24 364.679 786.23 364.638C791.273 363.681 803.256 358.843 799.167 360.228C797.527 360.855 788.91 363.958 783.084 365.037C777.851 366.149 775.231 366.697 783.049 364.874C783.102 364.862 783.155 364.85 783.209 364.837C787.013 363.915 789.082 363.662 795.387 361.144C799.577 359.571 800.332 359.686 805.824 357.111C804.971 357.636 804.107 358.161 803.243 358.678C809.137 356.284 815.813 352.984 821.291 350.583C822.978 349.839 824.518 349.118 825.863 348.48C827.85 347.619 835.004 344.348 833.09 344.68C836.435 343.147 850.454 333.197 852.794 331.03C853.36 330.504 854.548 330.355 862.593 322.69C863.118 322.131 863.652 321.557 864.166 320.995C856.79 327.948 869.53 315.381 865.822 318.547C864.809 319.845 859.024 325.441 858.076 326.316C856.503 327.862 861.568 323.662 855.207 329.132C850.865 332.182 862.411 322.436 860.286 323.553C866.06 318.373 867.896 316.184 869.138 314.824C869.656 314.239 870.045 313.772 870.52 313.215C877.056 305.263 878.987 298.733 882.834 290.246C882.988 289.898 883.141 289.543 883.295 289.182C883.54 288.67 883.357 289.181 882.898 290.275C881.397 293.902 877.029 304.126 875.981 305.556C879.999 298.467 874.277 310.788 869.359 315.032C869.245 315.146 869.132 315.256 869.022 315.365C868.752 315.813 868.492 316.249 868.219 316.695C868.676 316.211 869.141 315.715 869.581 315.242C874.602 309.943 877.772 303.435 880.651 296.996C880.816 296.515 880.977 296.039 881.14 295.56C880.39 297.126 879.636 298.692 878.85 300.249C881.364 294.419 880.134 297.861 883.147 290.387C883.195 290.27 883.243 290.151 883.292 290.029C883.515 289.837 883.738 289.643 883.961 289.447C887.205 281.814 889.496 273.85 891.365 265.83C892.726 261.733 895.517 246.134 894.649 248.928C895.731 242.642 894.549 250.427 895.649 244.551C896.125 241.984 896.961 236.976 897.079 235.722C896.682 236.204 895.405 243.7 894.791 245.934C894.88 245.324 896.103 238.07 897.385 230.506C899.078 221.04 899.814 210.926 899.485 212.655C899.717 209.837 899.777 211.152 900.316 206.084C900.444 204.884 900.574 203.625 900.709 202.313C902.335 188.199 901.68 168.719 900.446 158.228C902.356 171.646 901.971 175.716 901.879 186.075C901.83 188.45 901.602 195.141 900.884 202.33C899.786 215.165 897.908 229.607 898.881 223.896C898.636 225.359 898.372 226.826 898.094 228.279C898.02 229.055 897.945 229.812 897.863 230.588C897.79 231.3 897.712 232.042 897.641 232.754C897.762 232.05 897.889 231.316 898.012 230.614C898.617 227.167 899.144 223.697 899.568 220.221C899.59 219.206 899.606 218.192 899.616 217.179C899.735 216.728 899.854 216.269 899.971 215.816C900.169 214.049 900.356 212.281 900.541 210.518C900.409 211.003 900.276 211.499 900.145 211.98C900.396 209.261 900.642 206.528 900.894 203.812C900.934 204.558 900.974 205.304 901.016 206.041C901.157 204.624 901.276 203.427 901.38 202.379C902.131 193.981 901.82 196.751 901.975 190.359C902.127 185.025 902.137 194.058 902.413 182.731C902.231 169.56 902.509 178.193 901.083 161.177C901.11 160.929 901.137 160.686 901.162 160.426C900.641 156.717 900.005 152.98 899.031 149.322C899.223 149.791 899.412 150.287 899.585 150.736C899.267 149.403 898.969 148.011 898.356 146.505C895.957 140.132 893.075 132.947 891.956 131.14C895.244 138.287 894.648 138.422 893.826 136.572C892.922 134.26 883.722 113.441 871.57 96.6773C863.428 84.6844 851.518 77.6505 847.174 75.4888C833.356 68.5241 821.723 66.4155 808.183 62.8613C817.597 64.2068 849.792 74.4468 854.48 79.4926C854.998 79.8511 855.166 79.3195 858.124 82.1685C863.006 85.8759 867.762 90.7085 871.809 96.5092C876.393 103.055 880.903 110.237 885.06 117.844C884.933 117.348 884.796 116.837 884.67 116.35C879.594 107.701 874.817 99.7502 875.144 101.089C874.101 99.5284 873.035 97.9754 871.938 96.418C871.876 96.33 871.814 96.2422 871.752 96.1547C871.821 96.1057 871.89 96.0568 871.958 96.0078C870.201 93.5356 868.274 91.1637 866.2 88.947C866.138 89.0047 866.077 89.0624 866.015 89.1201C864.31 87.2964 862.479 85.5513 860.572 83.934C860.426 83.7002 860.28 83.4673 860.131 83.2352C854.787 77.5295 831.085 67.4618 841.306 72.2556C838.068 70.8808 834.761 69.6865 831.42 68.6172C831.45 68.5619 831.48 68.5066 831.51 68.4513C830.074 67.9826 828.632 67.5371 827.186 67.1099C827.647 67.3016 828.108 67.4952 828.567 67.6909C821.971 65.621 815.536 64.4321 811.193 63.1896C814.1 63.8387 817.009 64.4924 819.914 65.1878C814.341 63.8494 804.141 61.3086 803.241 61.0546C802.668 60.9127 802.15 60.7887 801.664 60.6746C799.717 60.2326 798.222 60.0651 795.739 59.7909C792.901 59.5146 793.325 59.4888 792.785 59.4454C777.528 58.9913 783.363 59.8524 776.259 59.3207C775.499 59.43 774.756 59.5416 774.007 59.6559C772.991 59.6268 771.999 59.6012 770.987 59.5802C766.492 59.806 762.052 60.1014 757.581 60.435C759.055 60.2217 760.553 60.0111 762.022 59.8079C755.332 60.215 752.223 60.697 751.577 60.7489C749.733 60.909 748.903 60.8458 748.329 60.8929C721.095 63.2762 737.658 61.9509 724.102 63.6825C719.235 63.9393 724.129 63.2882 724.79 63.0281C723.546 63.1616 722.461 63.275 721.472 63.3756C717.366 63.8032 715.005 64.0013 709.519 64.7067C707.751 64.9376 705.865 65.3105 704.756 65.4744C703.797 65.6126 700.762 65.9582 698.455 66.344C694.611 66.9696 689.53 67.9977 684.303 68.8552C683.873 68.925 683.356 69.0071 682.762 69.0979C677.279 69.8967 665.676 72.3509 657.353 74.0918C653.402 74.918 654.349 74.8151 653.323 75.0286C652.906 75.115 649.802 75.6398 647.272 76.1463C641.37 77.3309 635.412 78.4704 629.421 79.5163C617.902 81.3429 607.187 86.0575 596.15 88.8217C592.535 89.7694 588.907 90.6371 585.277 91.4292C570.737 94.636 555.717 96.4715 540.831 98.0551C537.651 98.42 539.376 98.307 537.964 98.4766C537.483 98.5662 536.927 98.3477 531.956 99.2771C530.293 99.6582 531.921 99.382 530.847 99.6546C530.755 99.6796 530.643 99.709 530.506 99.7434C529.686 99.9244 529.341 99.9836 524.492 100.82C515.62 102.201 510.783 102.929 509.99 103.064C508.488 103.266 508.911 103.098 506.91 103.38C503.222 103.9 499.791 104.404 496.439 104.917C490.925 105.76 485.713 106.497 480.294 107.204C476.237 107.902 448.082 110.755 446.542 110.712C443.065 111.002 446.32 111.002 441.867 111.289C440.624 111.312 439.384 111.329 438.12 111.34C440.09 111.192 442.092 111.026 444.05 110.85C438.603 111.298 432.425 111.493 428.417 111.536C428.22 111.538 427.556 111.555 426.675 111.558C424.203 111.561 419.843 111.615 417.277 111.632C418.775 111.661 420.267 111.696 421.767 111.736C421.24 111.772 420.706 111.808 420.178 111.846C413.139 111.815 405.71 111.983 398.502 112.168C395.912 112.233 396.781 112.299 394.157 112.364C378.861 112.652 382.716 112.45 368.025 112.726C372.971 113.048 391.107 112.828 393.746 112.708C395.582 112.649 402.697 111.908 400.097 112.554C414.81 112.229 402.018 112.145 415.769 112.004C415.494 112.078 415.22 112.152 414.947 112.226C419.747 112.215 423.295 112.255 426.211 112.152C426.283 112.178 426.439 112.202 426.669 112.223C429.505 112.603 444.088 111.719 452.319 110.971C465.179 109.918 479.672 108.246 492.322 106.369C494.034 106.116 495.423 105.884 496.558 105.683C498.317 105.373 499.355 105.166 499.683 105.116C500.494 104.994 502.737 104.779 504.344 104.546C509.666 103.691 524.824 101.799 531.012 100.308C531.737 100.149 532.381 100.059 532.861 100.007C532.243 100.118 531.618 100.243 531.034 100.392C519.725 102.995 508.075 103.93 496.583 105.846C473.408 109.355 450.073 112.182 426.666 112.576C426.525 112.575 426.383 112.574 426.242 112.573C430.747 112.239 394.482 112.753 392.648 112.899C390.945 112.945 392.382 113.026 391.875 113.044C388.109 113.179 384.89 113.064 383.702 113.078C382.784 113.088 380.951 113.194 377.71 113.188C377.123 113.186 376.948 113.104 376.311 113.1C372.095 113.07 367.915 112.961 363.701 112.636C363.441 112.617 362.373 112.652 361.306 112.545C360.241 112.44 359.209 112.193 358.938 112.157C358.522 112.105 358.075 112.046 357.607 111.98C354.201 111.502 349.426 110.883 346.617 110.493C345.507 110.338 346.291 110.359 345.046 110.188C341.225 109.664 342.457 110.001 337.741 109.325C336.154 109.101 336.277 108.983 333.238 108.608C331.091 108.345 331.286 108.607 330.946 108.572C330.474 108.515 323.073 107.429 320.619 107.32C325.887 108.313 314.805 106.699 315.353 106.606C312.4 106.346 309.443 106.109 306.485 105.902C305.482 105.774 304.478 105.649 303.472 105.528C302.065 105.441 300.721 105.362 299.428 105.289C289.736 104.76 282.841 104.53 272.461 104.51C271.893 104.509 261.983 104.547 262.446 104.603C268.377 104.762 274.293 104.775 278.093 104.638C284.332 105.118 284.449 104.747 294.523 105.271C297.895 105.473 298.126 105.602 298.514 105.625C298.805 105.645 299.1 105.666 299.401 105.688C312.552 106.544 332.698 109.1 341.31 110.016C343.76 110.424 334.916 109.268 338.342 109.785C339.178 109.906 348.616 111.213 357.531 112.505C368.635 113.972 379.047 113.528 370.99 113.298C372.497 113.351 374.001 113.387 375.516 113.41C377.025 113.764 384.528 113.632 383.678 113.318C384.384 113.373 385.098 113.427 385.814 113.48C387.211 113.513 388.883 113.511 391.211 113.477C395.755 113.45 411.696 112.848 426.663 112.96C441.151 112.827 454.644 111.336 456.026 111.277C456.096 111.346 456.166 111.414 456.236 111.483C446.381 112.402 436.601 113.154 426.661 113.191C413.088 113.041 399.252 113.578 384.458 113.94C385.2 113.86 385.947 113.778 386.685 113.695C376.975 113.921 367.185 114.162 357.472 112.915C356.991 112.85 356.512 112.786 356.035 112.722C356.499 112.794 356.977 112.868 357.468 112.945C368.285 114.686 384.578 114.268 395.409 113.931C397.425 113.864 395.944 113.802 396.407 113.779C397.619 113.719 398.92 113.855 403.268 113.77C407.616 113.667 418.532 113.399 419.533 113.419C420.89 113.416 423.867 113.508 426.657 113.59C427.834 113.623 429.004 113.621 429.965 113.6C434.303 113.479 431.39 113.438 432.26 113.411C435.855 113.278 439.075 113.158 441.884 112.973C446.057 112.718 454.678 111.788 457.62 111.805C454.654 112.1 451.686 112.372 448.71 112.619C464.851 111.429 477.353 109.52 493.174 107.492C496.817 107.331 483.775 109.215 494.81 107.736C492.821 108.033 490.817 108.324 488.803 108.607C488.322 108.596 487.842 108.585 487.365 108.573C483.918 109.117 480.473 109.634 477.027 110.125C478.012 109.93 478.971 109.737 479.958 109.537C467.699 111.106 455.291 112.185 451.015 112.899C450.751 112.829 450.485 112.76 450.223 112.689C442.22 113.439 431.361 113.84 426.655 113.84C424.656 113.852 423.796 113.924 424.752 114.079C424.213 114.05 423.671 114.021 423.13 113.994C416.226 114.106 419.17 113.898 416.578 113.891C415.837 113.866 402.404 114.228 408.36 114.264C395.257 114.662 399.286 114.114 395.668 114.176C387.278 114.684 372.128 114.337 378.49 114.702C377.241 114.717 375.981 114.724 374.722 114.722C370.606 114.375 366.516 114.58 362.014 114.286C360.493 114.154 358.962 113.987 357.446 113.777C357.414 113.769 357.382 113.761 357.351 113.754C356.388 113.518 355.447 113.287 354.484 113.053C340.374 111.521 344.991 110.894 338.425 111.083C339.422 111.281 340.407 111.478 341.402 111.679C343.772 112.032 346.136 112.391 348.502 112.755C338.939 111.439 329.363 110.188 319.781 109.155C311.8 108.478 306.086 107.891 299.284 107.413C295.691 107.165 291.81 106.971 287.13 106.901C285.857 106.831 284.59 106.768 283.324 106.71C284.609 106.99 289.541 107.056 280.358 106.968C279.578 107.122 285.765 107.26 288.591 107.244C289.267 107.236 283.497 106.9 289.993 107.13C294.37 107.341 286.536 107.082 299.26 107.759C299.376 107.766 299.494 107.773 299.614 107.781C299.496 107.783 299.377 107.785 299.258 107.787C298.881 107.793 298.505 107.8 298.132 107.808C298.503 107.832 298.876 107.856 299.252 107.881C300.313 107.953 301.374 108.028 302.437 108.108C303.717 108.108 305.001 108.114 306.284 108.125C309.547 108.552 311.37 108.885 318.847 109.646C316.825 109.368 319.6 109.461 323.298 109.893C323.29 109.963 323.282 110.033 323.273 110.103C332.223 111.217 329.153 110.639 336.573 111.762C337.329 111.805 338.073 111.848 338.829 111.893C342.852 112.645 357.734 114.928 355.07 114.202C355.691 114.342 356.418 114.487 357.224 114.633C361.879 115.518 368.836 115.683 371.669 115.509C371.922 115.586 372.175 115.661 372.43 115.737C374.211 115.79 375.977 115.822 377.753 115.839C378.737 115.799 379.729 115.754 380.712 115.706C381.971 115.741 383.225 115.77 384.47 115.795C385.223 115.714 385.982 115.632 386.731 115.549C388.748 115.598 390.746 115.64 392.759 115.677C393.981 115.593 395.209 115.508 396.434 115.422C396.566 115.565 408.697 115.3 412.074 115.168C413.081 115.195 414.094 115.223 415.098 115.254C415.589 115.179 416.084 115.104 416.575 115.03C417.323 115.078 418.073 115.128 418.825 115.179C420.548 115.114 422.274 115.055 424.004 115.005C425.015 115.058 425.886 115.099 426.644 115.131C431.275 115.272 431.576 114.982 433 114.947C436.004 114.885 446.26 114.451 447.958 114.282C449.673 114.14 450.489 113.95 451.85 113.825C474.483 111.521 465.184 112.635 469.731 112.233C472.186 111.98 473.908 111.658 476.053 111.405C479.033 111.08 491.625 109.463 497.014 108.627C498.334 108.43 499.195 108.303 499.409 108.268C500.95 108.014 497.229 108.027 502.274 107.411C502.483 107.659 513.194 105.836 508.224 106.951C512.643 106.283 517.079 105.658 521.549 104.948C521.109 105.307 526.021 104.561 531.732 103.141C531.966 103.081 532.262 103.014 532.535 102.958C540.456 101.639 559.994 99.957 559.179 99.5444C561.217 99.3534 563.282 99.1433 565.323 98.9188C576.082 97.2198 586.64 95.1847 597.106 92.4815C600.201 91.683 603.273 90.7985 606.316 89.8467C614.275 87.3217 621.918 84.6334 630.077 83.3064C647.818 80.3197 665.784 75.8665 683.332 72.7596C696.497 70.5028 709.121 68.1705 721.816 67.0745C724.657 66.8054 727.456 66.5407 730.261 66.2781C732.218 66.0949 731.927 66.0063 733.343 65.8746C740.759 65.1748 760.07 63.5589 770.419 63.0637C773.753 62.8893 775.341 62.7273 776.412 62.6851C779.982 62.5589 779.127 62.7386 780.782 62.7013C783.253 62.5842 796.378 62.5533 800.84 63.9407C800.988 63.9773 801.13 64.0123 801.263 64.0454C803.571 64.6175 806.269 65.3859 808.967 65.9909C809.199 66.0432 808.8 65.8237 808.996 65.8683C813.898 67.021 810.927 66.4206 812.584 66.8108C824.348 69.6022 836.902 72.7609 848.094 79.0022C850.884 80.5133 854.955 83.1583 857.063 84.869C857.865 85.522 856.392 84.3882 859.13 86.6888C860.045 87.4863 860.448 87.6872 861.451 88.6282C865.552 92.6251 866.554 94.4897 869.504 98.1325C869.632 98.2965 869.764 98.4637 869.899 98.6344C875.843 106.867 884.618 122.21 888.322 130.66C889.238 132.651 889.722 133.57 890.548 135.493C891.134 136.859 892.019 139.286 892.853 141.446C893.465 142.978 894.216 145.018 895.401 147.82C895.709 148.513 896.055 149.762 896.337 150.971C897.382 155.391 897.995 161.175 898.107 162.206C898.247 163.462 898.439 164.057 898.553 165.297C898.975 169.107 899.258 179.387 899.099 184.337C899.001 189.659 898.851 192.847 898.74 194.661C898.631 196.351 898.366 198.283 898.298 199.063C898.194 200.249 898.299 200.535 898.15 202.06C898.15 202.061 898.15 202.062 898.15 202.063C897.899 204.575 897.571 207.142 897.206 210.881C896.583 217.374 895.877 223.716 894.759 230.056C891.312 250.396 888.483 270.848 880.446 289.178C876.557 297.874 873.398 306.591 867.187 312.984C853.668 327.367 837.862 339.726 819.982 347.588C810.406 351.737 801.233 356.531 791.656 359.666C788.281 360.764 785.583 361.449 782.461 362.103C779.164 362.779 775.472 363.646 770.173 364.795C765.928 365.673 767.742 365.458 764.434 366.015C762.96 366.24 763.316 366.087 761.459 366.337C758.692 366.696 755.779 366.921 753.008 366.897C747.205 366.879 742.041 367.153 739.595 367.197C738.138 367.233 736.468 367.161 733.484 367.201C723.317 367.347 712.334 366.942 701.324 365.064C688.103 362.828 674.589 360.475 662.014 357.416C653.674 355.377 642.434 352.267 632.589 347.559C627.87 345.301 623.348 342.959 619.314 340.697C602.762 331.494 586.934 319.164 576.583 303.037C576.576 303.027 576.557 302.998 576.55 302.988C565.228 286.361 553.724 269.839 544.156 254.662C543.567 253.628 543.003 252.576 542.453 251.514C535.992 238.71 530.83 225.03 526.919 211.212C522.386 194.529 518.045 177.593 516.701 160.647C515.669 141.711 515.626 121.89 520.401 104.036C521.674 100.284 523.523 96.4522 525.401 92.7107C523.652 96.2784 521.791 100.153 520.485 104.063C516.016 120.53 515.793 141.584 516.918 160.632C517.373 167.158 518.429 173.606 519.604 179.71C521.641 190.173 524.288 200.656 527.198 211.135C531.444 225.947 537.051 240.903 544.431 254.505C554.558 270.531 565.857 286.749 576.781 302.83C576.789 302.84 576.81 302.873 576.817 302.884C589.827 323.172 610.885 336.951 632.7 347.325C646.273 353.687 661.257 357.165 676.079 360.188C683.981 361.771 692.509 363.258 701.376 364.757C717.725 367.72 735.356 366.738 753.012 366.503C760.127 366.58 767.224 365.057 774.171 363.502C775.609 363.182 778.619 362.587 781.769 361.899C781.856 361.88 782.071 361.831 782.387 361.758C784.444 361.351 790.669 359.512 792.92 358.668C790.56 359.865 800.648 355.897 803.734 354.397C806.88 353.039 812.77 350.36 819.837 347.254C821.55 346.504 823.296 345.682 825.065 344.782C833.023 340.568 830.706 341.509 831.157 341.3C833.893 339.667 834.922 339.237 837.001 337.937C841.529 335.225 855.417 325.27 866.925 312.737C873.624 305.813 876.827 296.107 880.101 289.024C881.58 285.7 882.638 282.805 883.363 280.726C884.56 277.224 884.441 277.073 884.697 276.279C885.352 274.167 886.339 271.167 887.208 267.708C888.792 261.481 890.103 254.151 890.743 250.645C891.687 245.617 892.987 237.828 894.352 229.986C895.275 224.844 895.94 219.729 896.388 215.319C896.706 212.216 896.56 212.392 896.699 210.984C896.904 208.896 897.228 205.67 897.612 202.007C898.39 194.915 898.789 186.126 898.747 181.065C898.663 170.051 897.881 157.799 894.962 148.016C894.371 146.638 893.981 145.508 893.523 144.299C893.184 143.554 892.855 142.842 892.508 142.094C892.109 140.902 891.7 139.715 891.27 138.509C885.516 124.455 877.924 110.937 869.127 98.3978C865.666 93.4537 861.565 89.0534 856.914 85.3525C855.221 83.6296 845.037 77.6114 843.119 76.9769C841.629 76.2758 840.199 75.4855 837.907 74.5915C834.676 73.3855 837.647 74.7195 832.35 72.7795C830.913 72.2821 832.356 72.6259 829.449 71.6637C828.592 71.1375 809.349 66.2583 808.241 66.0769C806.491 65.6734 804.876 65.5256 804.421 65.4202C802.121 64.8864 802.201 64.7267 800.741 64.3368C800.711 64.3288 800.68 64.3207 800.649 64.3125C796.476 63.1997 790.286 63.1307 789.556 63.0941C780.438 62.6024 763.006 63.5498 753.256 64.4332C751.912 64.5511 752.081 64.6734 751.844 64.6965C750.302 64.8482 749.365 64.7713 747.893 64.8904C740.675 65.471 729.695 66.5689 721.84 67.3358C721.165 67.4015 720.536 67.4643 719.922 67.5268C719.012 67.6184 717.12 67.7374 715.51 67.925C706.457 69.0336 709.411 68.8449 708.897 68.8992C707.684 69.0748 705.527 69.2328 702.291 69.7284C697.579 70.42 690.464 71.7991 683.359 72.9338C678.127 73.768 672.905 74.893 669.049 75.6937C662.38 77.1016 662.502 77.2336 662.067 77.3273C661.123 77.5308 658.506 77.9657 654.082 78.8683C645.585 80.585 646.565 80.4865 643.063 81.1718C642.766 81.2277 643.262 81.0226 639.366 81.7516C637.013 82.1893 633.744 82.8004 630.101 83.443C622.305 84.6851 613.261 87.858 607.82 89.5926C604.797 90.5439 604.055 90.6603 600.914 91.5601C599.886 91.8507 598.575 92.2169 597.137 92.6004C591.694 94.0787 584.464 95.7132 583.737 95.8538C583.484 95.9062 582.906 95.8996 581.417 96.2003C579.801 96.5262 578.193 96.901 576.989 97.1245C570.058 98.4738 558.031 99.8896 561.426 99.875C559.191 100.073 556.919 100.256 554.684 100.418C546.898 101.463 538.702 101.943 531.778 103.322C525.061 104.976 518.493 105.668 511.91 106.618C508.691 107.063 506.018 107.532 503.303 107.928C502.247 108.082 499.784 108.425 497.044 108.822C492.743 109.45 487.755 110.105 486.534 110.272C482.952 110.854 462.446 113.274 459.884 113.449C454.905 113.961 450.053 114.543 448.015 114.659C446.385 114.751 447.879 114.539 444.77 114.73C439.355 115.088 430.149 115.592 428.461 115.564C427.972 115.566 428.437 115.535 426.641 115.502C425.826 115.483 424.55 115.463 422.472 115.46C418.945 115.457 417.054 115.571 415.773 115.583C415.374 115.592 415.969 115.415 408.983 115.556C404.148 115.664 402.089 115.833 401.584 115.844C400.817 115.863 398.979 115.786 395.915 115.865C388.762 116.062 375.616 116.463 368.691 116.128C367.357 116.056 367.826 116.01 362.479 115.613C358.649 115.263 359.304 115.412 357.857 115.239C357.631 115.209 357.396 115.176 357.151 115.138C354.969 114.805 351.89 114.244 347.507 113.633C342.58 112.879 312.14 108.967 299.218 108.374C296.103 108.176 293.998 108.087 293.543 108.07C291.96 108.015 290.118 107.94 289.334 107.974C289.999 108.06 290.683 108.149 291.344 108.239C298.328 108.368 295.491 108.486 297.341 108.605C297.777 108.636 298.414 108.678 299.194 108.733C303.128 108.991 310.508 109.63 312.543 109.887C313.409 109.995 311.408 109.916 316.069 110.462C321.069 111.061 323.321 111.104 325.278 111.652C332.426 112.156 339.202 113.44 330.964 112.473C328.421 112.192 313.525 110.303 299.149 109.389C287.544 108.613 276.206 108.639 272.045 108.61C264.535 108.595 250.253 108.434 240.855 107.726C240.166 107.68 239.368 107.624 238.468 107.556C232.392 107.007 222.369 107.043 222.859 107.221C218.127 107.325 223.131 107.066 222.14 107.062C220.066 106.888 205.274 108.011 202.434 108.416C195.613 109.081 187.766 110.124 179.602 110.092C171.618 110.038 163.68 110.396 156.811 111.035C157.445 111.032 158.069 111.031 158.705 111.031C161.736 110.804 175.811 110.2 177.406 110.496C158.19 110.437 139.406 113.262 119.708 115.399C118.238 115.53 116.813 115.659 115.343 115.793C115.712 115.547 89.9422 118.021 88.7313 118.243C89.1962 118.287 89.6616 118.33 90.1167 118.374C104.651 116.608 103.381 117.184 113.142 116.035C117.108 115.668 115.938 115.923 117.892 115.774C118.544 115.725 119.156 115.678 119.729 115.634C136.474 114.045 118.746 115.514 133.279 113.896C128.811 114.675 141.035 113.189 146.441 112.666C147.682 112.447 163.874 111.082 165.809 111.111C169.651 110.938 174.48 110.818 179.6 110.852C189.6 110.876 199.841 109.276 206.73 108.649C215.165 107.892 219.768 107.84 227.371 107.946C233.138 108.103 231.488 107.98 234.206 108.103C235.894 108.194 237.225 108.317 238.399 108.436C241.28 108.724 243.05 108.903 245.747 108.727C249.77 108.994 253.801 109.175 257.807 109.302C257.808 109.232 257.809 109.161 257.81 109.091C260.329 109.136 262.84 109.16 265.343 109.178C266.079 109.253 266.815 109.327 267.549 109.402C275.465 109.35 272.155 109.164 273.636 108.974C275.337 108.973 277.045 108.975 278.738 108.985C280.052 109.156 281.36 109.332 282.667 109.513C288.164 109.622 293.629 109.839 299.093 110.204C301.151 110.341 303.208 110.493 305.265 110.66C305.76 110.631 306.25 110.602 306.744 110.574C306.754 110.645 306.764 110.716 306.774 110.788C319.528 111.903 332.287 113.551 345.058 115.337C348.436 115.895 327.968 113.224 326.424 113.101C320.093 112.323 306.078 110.836 299.074 110.483C296.549 110.336 294.94 110.295 294.933 110.36C289.617 109.777 273.469 109.588 268.35 109.827C276.071 109.851 283.69 109.892 291.283 110.221C291.035 110.294 290.79 110.367 290.538 110.44C294.323 110.467 296.809 110.544 299.062 110.671C302.443 110.87 305.276 111.159 311.097 111.9C311.117 111.789 311.136 111.678 311.156 111.567C317.903 112.571 329.987 113.387 330.272 113.921C333.898 114.338 337.519 114.777 341.145 115.232C347.849 116.214 339.814 115.344 356.772 117.755C359.775 118.188 363.485 118.533 368.026 118.711C370.236 118.789 369.781 118.66 373.07 118.742C374.008 118.76 379.459 119.057 389.661 118.815C391.255 118.779 391.37 118.67 393.019 118.619C396.824 118.497 404.381 118.524 400.94 118.263C415.928 117.83 409.709 118.263 414.352 118.296C417.438 118.335 416.811 118.138 419.481 118.168C422.012 118.206 421.177 118.32 426.616 118.37C428.384 118.389 430.74 118.343 433.872 118.2C432.348 118.245 430.828 118.278 429.271 118.291C430.037 118.222 430.81 118.148 431.593 118.069C439.377 117.92 438.581 117.702 442.244 117.808C447.83 117.307 452.642 116.925 460.246 116.21C474.985 114.696 467.495 115.935 484.208 113.325C486.909 113.023 489.656 112.698 492.359 112.363C496.135 111.685 494.069 111.857 497.425 111.282C498.033 111.177 498.767 111.055 499.781 110.896C494.691 111.998 508.512 109.795 510.894 109.785C511.134 109.68 511.372 109.576 511.607 109.472C513.078 109.266 514.55 109.061 516.029 108.853C516.041 108.908 516.054 108.964 516.066 109.019C518.026 108.701 520.002 108.379 521.997 108.033C523.513 107.859 525.035 107.672 526.588 107.45C528.515 107.012 530.474 106.519 532.44 105.926C532.787 105.809 533.237 105.686 533.731 105.568C535.033 105.323 536.505 105.117 537.99 104.924C537.516 105.067 537.071 105.209 536.624 105.354C538.497 105.075 540.427 104.829 542.383 104.582C540.113 104.976 541.556 104.973 547.687 104.291C552.769 103.698 546.985 104.131 557.978 102.887C558.731 102.772 560.134 102.919 570.508 101.305C582.939 99.1955 576.874 100.061 579.084 99.6663C579.526 99.5824 583.321 98.9569 586.86 98.1932C588.869 97.7638 590.77 97.2336 591.037 97.171C592.283 96.8813 592.649 96.917 594.365 96.4998C595.477 96.2278 596.663 95.9256 597.919 95.5935C601.584 94.6307 605.595 93.399 608.682 92.4158C610.57 91.8172 612.326 91.3157 613.147 91.0513C614.42 90.6392 615.98 90.026 617.235 89.6406C621.604 88.2288 628.061 87.1057 630.602 86.3341C630.766 86.2824 630.913 86.231 631.042 86.1799C635.933 85.8115 645.849 83.3325 645.164 83.7671C654.213 81.9976 674.046 77.6216 683.833 75.9818C688.142 75.2685 690.738 74.7054 690.43 74.6167C697.712 73.7699 696.969 73.5852 699.959 73.0912C703.278 72.5609 701.573 72.9184 704.21 72.5081C710.253 71.5858 716.034 70.8671 722.116 70.2976C722.237 70.2862 722.359 70.2748 722.48 70.2635C722.358 70.2663 722.236 70.2691 722.113 70.2719C721.239 70.2918 720.399 70.3112 719.53 70.3368C720.603 70.2257 721.408 70.1506 722.097 70.0913C725.611 69.7897 724.943 69.9686 730.583 69.4751C742.968 68.4034 737.729 68.7559 739.546 68.4068C739.068 68.6134 753.647 67.3424 755.12 67.2305C756.003 67.1548 752.111 67.1976 761.025 66.6299C760.544 66.7333 760.05 66.8382 759.575 66.9423C763.641 66.5231 774.602 66.0593 776.448 66.0159C777.276 65.9767 781.844 65.2599 785.936 65.7617C786.418 65.6973 786.929 65.6357 787.421 65.5765C791.862 65.7659 796.415 66.134 800.04 67.114C800.088 67.1268 800.135 67.1397 800.183 67.1525C800.954 67.2165 801.725 67.2777 802.495 67.3369C803.962 67.6972 805.428 68.0497 806.888 68.3984C805.893 68.2758 804.897 68.1522 803.896 68.0247C813.011 70.112 823.624 72.9686 825.468 73.1896C827.292 73.7908 829.095 74.4191 830.871 75.083C832.081 75.3527 833.285 75.639 834.481 75.9449C842.585 79.1282 842.607 79.3977 847.64 82.3129C847.495 82.1143 847.346 81.9151 847.197 81.717C850.912 83.9029 857.176 88.5306 861.291 93.0551C863.324 95.1272 866.468 99.0312 866.837 99.634C866.871 99.6836 866.928 99.7721 867.004 99.8934C867.891 101.255 870.969 106.57 871.688 106.941C877.294 116.043 879.599 120.119 881.622 123.927C882.903 126.41 883.39 127.622 884.737 130.474C886.668 134.573 888.472 138.75 889.425 141.188C889.967 142.571 889.97 142.884 890.337 143.851C891.827 147.79 891.273 146.273 892.468 149.125C892.458 149.08 892.643 149.569 892.819 150.219C892.935 150.565 893.655 153.975 894.269 158.108C894.662 160.39 895.418 166.414 895.438 166.962C895.593 169.355 895.288 167.433 895.969 175.59C895.905 175.354 895.841 175.12 895.776 174.887C895.905 185.025 895.897 186.61 895.888 188.676C895.883 188.93 895.686 191.404 895.611 192.881C895.49 195.372 895.536 196.405 895.503 196.948C895.445 197.825 895.295 199.627 895.086 201.758C894.824 204.423 894.539 207.541 894.376 209.955C894.111 209.072 892.442 224.121 892.177 227.41C892.038 228.124 891.898 228.823 891.752 229.54C891.351 231.514 890.963 233.48 890.576 235.441C890.442 236.681 890.31 237.909 890.178 239.133C889.984 239.867 889.793 240.586 889.599 241.316C889.094 245.248 888.567 249.158 887.976 253.047C887.777 253.263 887.578 253.479 887.379 253.694C887.186 254.777 886.989 255.853 886.786 256.93C886.735 257.791 886.678 258.655 886.619 259.514C886.308 260.847 885.988 262.174 885.656 263.495C885.493 263.804 885.329 264.111 885.164 264.418C883.229 271.419 885.344 268.245 880.317 281.023C879.663 283.042 878.957 285.033 878.188 286.986C878.016 287.266 877.838 287.582 877.652 287.928C876.38 290.318 874.964 294.051 873.634 296.91C872.534 299.22 872.497 299.078 870.945 302.033C869.348 304.912 869.462 304.807 869.341 305.036C867.936 307.257 866.636 308.695 865.388 310.121C865.297 310.225 865.17 310.421 864.869 310.797C864.515 311.232 863.922 311.925 862.951 312.933C861.057 314.884 859.817 315.916 856.922 318.689C855.43 320.102 855.08 320.593 853.726 321.817C847.263 327.658 839.874 332.254 834.829 336.336C833.579 337.121 824.281 342.071 820.162 343.815C819.587 344.08 819.081 344.309 818.637 344.508C813.921 346.638 815.924 345.899 813.492 347.018C813.112 347.191 811.016 348.095 805.478 350.623C804.493 351.069 804.683 350.888 804.541 350.951C798.97 353.532 789.193 357.522 781.791 358.952C780.513 359.227 779.324 359.491 778.255 359.73C777.569 359.868 773.865 360.515 768.012 362.053C764.037 362.733 758.632 363.767 753.043 363.749C745.089 363.763 736.963 364.279 730.392 364.064C728.742 364.064 726.73 364.129 726.008 364.113C719.748 363.847 722.004 364.076 707.991 363.015C709.09 363.009 706.138 362.593 701.865 361.872C701.681 361.841 701.494 361.809 701.306 361.778C694.189 360.58 699.197 361.691 693.492 360.684C693.504 360.615 693.516 360.546 693.528 360.477C680.407 358.326 677.839 357.619 664.974 354.714C660.347 353.66 653.609 351.966 652.544 351.632C652.115 351.525 647.287 349.85 646.838 349.678C644.245 348.807 642.772 348.357 640.592 347.517C638.35 346.648 636.028 345.634 633.98 344.638C629.227 342.336 625.634 340.397 626.541 341.186C624.642 340.106 622.787 339.013 620.93 337.878C613.576 334.263 608.895 330.306 607.276 329.686C606.138 328.79 605.014 327.877 603.909 326.947C594.221 319.774 585.729 311.24 579.264 301.291C579.249 301.269 579.204 301.201 579.189 301.179C568.309 285.233 556.873 268.859 546.877 253.111C545.031 249.866 543.316 246.323 541.695 242.751C541.127 241.492 535.342 227.23 535.158 226.452C533.856 223.07 534.811 226.79 532.496 219.765C532.36 218.948 532.229 218.133 532.102 217.316C529.809 209.795 530.386 211.754 529.894 210.385C529.811 210.14 529.699 209.788 529.538 209.252C529.143 207.753 529.367 208.205 528.826 206.178C525.812 195.216 520.457 172.376 519.888 160.526C519.886 160.495 519.884 160.464 519.882 160.434C519.729 158.071 519.668 158.427 519.623 157.67C519.505 155.556 519.438 151.377 519.394 147.124C519.352 134.615 519.642 118.495 523.448 105.039C528.929 90.8535 538.151 75.8208 546.073 65.3417C547.143 63.9663 547.194 63.7393 547.93 62.8431C548.221 62.493 548.655 61.9923 549.113 61.4877C550.375 60.0966 551.926 58.3663 552.766 57.3756C553.875 56.0681 554.531 55.1674 555.702 53.7708C561.083 47.3298 568.335 38.914 574.047 32.1704C574.506 31.5924 580.422 24.4428 580.554 24.2885C581.275 23.2811 575.421 29.0888 584.519 19.0642C576.096 27.7421 578.256 24.6134 589.093 13.199C583.519 18.7856 578.087 24.5164 572.792 30.3697C572.75 30.3475 572.708 30.3253 572.666 30.3031C577.3 24.7927 582.052 19.4805 589.734 11.6812C589.466 11.891 589.196 12.1029 588.923 12.3184C581.961 19.0289 574.045 27.606 568.979 32.9581C575.949 24.698 583.174 16.6496 590.693 8.8516C590.287 9.20815 589.875 9.57288 589.471 9.93139C585.731 13.5101 577.876 21.707 574.939 24.8525C563.623 36.8356 584.528 14.0697 580.992 17.7299C568.962 30.3097 557.975 43.7918 546.601 57.0195C545.951 57.2395 589.703 6.55005 589.725 7.45665C585.819 11.3067 581.997 15.2054 578.218 19.196C579.816 17.3338 581.41 15.5033 583.04 13.6627C582.552 14.1195 582.051 14.5906 581.563 15.0508C575.108 21.6621 568.836 28.4953 562.735 35.4436C581.233 14.2217 590.876 5.34443 595.095 -0.000788832C594.522 0.518553 593.956 1.03534 593.394 1.54956C589.231 6.03221 569.138 26.6949 559.329 38.4424C561.205 35.9486 570.182 25.8877 572.062 23.7493C572.586 23.1327 570.612 25.1476 571.829 23.7244C574.921 19.9128 589.349 4.84647 587.134 6.92078C585.469 8.02378 562.521 32.5815 558.512 37.7455C568.281 25.9364 578.947 14.1915 589.789 3.21299C582.641 9.82553 576.201 15.652 564.412 28.9605C560.503 32.7689 585.884 4.87606 586.696 4.43523C581.989 8.97511 577.389 13.5951 572.869 18.323C576.651 14.2797 580.485 10.3167 584.399 6.41021C584.385 6.37406 584.371 6.33789 584.358 6.30173C574.168 16.3536 565.111 25.9002 554.594 38.3507C554.786 37.8257 561.138 30.4055 564.3 26.8562ZM200.331 109.72C200.025 109.908 205.884 109.253 209.149 108.992C208.66 109.061 208.166 109.131 207.68 109.203C214.658 108.406 227.551 108.232 228.024 108.632C232.96 108.795 230.791 108.489 232.38 108.516C232.764 108.527 235.28 108.686 238.36 108.93C240.458 109.096 242.798 109.231 244.928 109.274C246.214 109.345 247.499 109.408 248.782 109.463C249.028 109.571 249.273 109.679 249.517 109.787C251.313 109.739 253.105 109.676 254.894 109.6C249.403 109.462 243.88 109.198 238.374 108.76C225.737 107.706 213.186 108.28 200.358 109.717C200.349 109.718 200.34 109.719 200.331 109.72ZM382.972 118.638C389.76 118.511 400.027 118.136 397.955 118.463C393.724 118.552 389.464 118.643 385.189 118.693C384.446 118.676 383.719 118.658 382.972 118.638ZM888.368 252.336C887.573 257.811 886.39 262.769 884.239 270.922C884.188 270.897 884.137 270.871 884.087 270.846C885.172 267.579 887.177 258.631 888.368 252.336ZM34.7745 122.724C33.6029 122.981 32.422 123.256 31.2251 123.538C36.1418 122.81 36.911 122.339 42.2175 121.726C42.5362 121.694 42.4327 121.774 42.5439 121.764C43.8348 121.64 45.0211 121.48 46.1855 121.441C47.4849 121.4 48.6434 121.424 50.1571 121.507C51.6077 121.577 53.0689 121.537 54.9513 121.435C58.3586 121.228 58.3495 121.072 59.5468 120.988C60.5517 120.936 70.4485 120.406 76.7501 119.614C84.3722 118.522 66.3009 120.858 50.166 121.291C42.6332 120.934 36.0157 122.507 34.7745 122.724ZM3.52142 136.152C4.55227 135.558 5.56333 134.977 6.60904 134.379C3.39614 135.996 9.67559 132.39 14.2589 129.876C14.0205 129.751 4.36853 135.307 -0.000812016 137.809C1.1912 137.244 2.34887 136.701 3.52142 136.152ZM148.733 111.646C144.134 112.098 144.929 112.273 145.129 112.32C146.586 112.161 148.05 112.009 149.512 111.865C149.255 111.792 148.996 111.718 148.733 111.646ZM113.845 115.424C114.49 115.438 116.836 115.278 119.678 115.064C123.312 114.792 127.617 114.29 130.274 113.971C130.483 113.945 129.16 114.019 132.534 113.608C133.563 113.473 143.489 112.608 141.271 112.501C134.142 113.287 127.015 114.281 119.665 114.923C117.719 115.088 115.792 115.254 113.859 115.422C113.855 115.423 113.85 115.423 113.845 115.424ZM103.695 116.474C105.584 116.345 107.492 116.216 109.394 116.09C110.378 115.92 111.331 115.754 112.312 115.586C110.153 115.766 107.996 115.948 105.832 116.134C105.115 116.247 104.407 116.36 103.695 116.474ZM532.395 224.666C532.618 225.051 532.843 225.436 533.068 225.819C533.65 227.404 536.29 235.216 535.284 232.809C534.274 230.108 533.311 227.396 532.395 224.666ZM522.779 191.14C522.348 189.472 521.929 187.802 521.524 186.129C521.242 184.166 520.979 182.203 520.738 180.243C522.461 188.63 524.832 197.487 524.067 196.154C524.538 198.069 525.022 199.98 525.517 201.889C525.272 200.24 525.363 200.445 526.792 205.408C526.827 206.079 527.358 208.127 528.122 210.878C528.656 212.8 529.334 215.072 530.069 217.468C529.371 215.282 528.707 213.088 528.088 210.887C527.512 208.838 526.946 206.786 526.393 204.73C526.353 204.741 526.312 204.752 526.272 204.763C528.883 214.335 525.341 202.511 523.991 196.201C523.815 195.721 523.64 195.239 523.466 194.759C523.231 193.552 523.002 192.346 522.779 191.14ZM842.897 77.6779C843.987 78.1482 845.064 78.6407 846.129 79.1589C849.878 81.8514 842.031 76.7445 835.497 74.9274C837.727 75.3368 828.006 71.9683 827.397 71.8671C828.571 72.1023 829.742 72.3503 830.908 72.6133C835.037 74.0768 839.061 75.7339 842.897 77.6779ZM868.579 98.3784C868.017 97.6966 868.117 97.9103 868.654 98.7311C870.77 101.781 878.323 113.553 880.904 118.372C881.747 119.848 883.288 122.417 883.833 123.526C884.123 124.207 884.408 124.888 884.692 125.579C885.351 126.23 890.842 138.609 892.504 143.738C892.744 144.173 892.998 144.648 893.238 145.087C893.605 146.09 893.938 147.076 894.431 148.252C894.577 148.608 894.849 149.566 895.032 150.344C895.04 150.093 895.058 149.891 895.06 149.634C895.341 150.971 895.561 152.384 895.751 153.813C896.637 159.422 896.442 155.925 896.928 160.183C897.387 164.954 896.192 157.204 896.021 157.376C895.722 155.282 895.005 150.812 894.13 148.385C892.969 145.518 892.243 143.346 891.613 141.77C890.743 139.657 891.616 142.091 887.972 132.961C887.022 131.021 886.04 129.103 885.029 127.207C883.381 123.604 881.622 120.055 879.758 116.552C879.312 115.966 878.854 115.367 878.395 114.775C878.22 114.406 873.585 106.47 873.881 106.871C872.634 105.126 870.692 102.271 868.324 98.9634C866.642 96.6099 864.631 94.1136 862.375 91.754C861.905 91.1833 861.42 90.617 860.924 90.0589C866.033 95.5094 862.623 91.7266 864.212 93.2882C865.138 94.2013 867.68 97.2123 868.579 98.3784ZM557.083 272.627C549.913 261.467 554.235 268.438 546.461 256.488C547.088 257.242 547.736 258.012 548.383 258.776C552.001 264.772 558.64 274.319 557.09 272.638C557.088 272.634 557.085 272.63 557.083 272.627ZM517.499 142.402C517.445 149.881 517.142 146.133 517.413 155.617C517.414 155.621 517.414 155.626 517.414 155.63C517.177 150.732 517.086 145.818 517.136 140.91C517.255 141.409 517.376 141.906 517.499 142.402ZM817.885 347.021C818.454 346.764 818.962 346.537 819.432 346.329C824.199 344.136 823.641 344.504 828.733 341.592C837.141 337.06 830.121 341.068 830.219 341.248C828.284 342.266 826.317 343.235 824.338 344.143C819.662 346.617 824.225 344.548 824.235 344.554C824.231 344.556 824.227 344.558 824.223 344.56C824.252 344.615 824.414 344.566 822.597 345.474C821.565 345.833 820.544 346.17 819.506 346.498C818.959 346.674 818.425 346.846 817.885 347.021ZM844.269 332.111C842.209 333.421 841.254 333.975 846.31 330.045C846.313 330.042 846.317 330.04 846.32 330.037C846.939 329.998 851.585 325.957 853.685 324.107C854.262 323.651 854.839 323.188 855.409 322.725C851.836 326.026 848.125 329.164 844.269 332.111ZM892.338 240.253C891.993 240.16 891.055 245.578 892.004 237.897C892.256 236.418 892.508 234.93 892.762 233.443C893.002 232.476 893.242 231.517 893.487 230.545C893.518 230.312 893.55 230.081 893.582 229.854C895.481 213.529 896.959 207.918 893.723 229.878C893.301 232.252 892.834 234.933 892.296 237.945C892.295 237.949 892.294 237.954 892.293 237.958C892.307 238.729 892.324 239.481 892.338 240.253ZM885.482 272.786C885.237 272.964 884.993 273.141 884.748 273.316C884.044 277.203 882.273 281.94 879.526 288.766C879.384 289.112 879.245 289.457 879.104 289.811C878.745 290.482 878.392 291.146 878.039 291.815C877.222 294.01 871.185 308.298 866.379 312.222C864.527 314.129 863.662 314.919 864.9 313.524C865.264 313.11 865.731 312.602 866.221 312.073C868.186 310.032 870.418 306.98 870.62 306.627C871.532 305.21 872.513 303.238 873.813 300.605C874.576 299.095 876.237 295.842 877.682 292.493C878.174 291.361 878.722 290.076 879.327 288.678C882.615 281.303 885.606 269.914 887.871 261.279C887.98 260.528 888.086 259.774 888.188 259.022C889.788 251.369 889.452 253.962 890.547 246.733C892.588 242.026 884.563 275.367 886.664 268.525C886.663 268.53 886.662 268.534 886.661 268.538C886.284 269.961 885.892 271.378 885.482 272.786ZM712.128 365.414C711.634 365.595 702.761 364.197 704.802 364.838C703.69 364.626 702.587 364.401 701.477 364.161C699.677 363.774 697.875 363.384 696.077 362.993C696.105 362.962 696.134 362.931 696.162 362.899C697.949 363.224 699.739 363.546 701.527 363.866C702.645 364.066 703.756 364.251 704.875 364.424C704.894 364.37 704.913 364.316 704.932 364.262C709.144 365.383 727.317 366.151 726.775 365.777C727.753 365.873 728.724 365.962 729.701 366.046C737.577 365.858 744.449 365.592 753.023 365.503C753.891 365.499 754.777 365.468 755.683 365.407C756.384 365.448 757.09 365.475 757.799 365.489C758.254 365.397 758.707 365.299 759.16 365.197C762.471 364.856 765.814 364.255 769.19 363.553C780.279 361.425 758.887 366.369 756.409 365.878C756.072 365.884 756.112 365.769 754.012 365.782C753.757 365.781 753.424 365.781 753.02 365.775C746.867 365.655 727.303 366.595 721.028 366.012C720.966 366.106 720.903 366.2 720.841 366.294C717.921 366.074 715.014 365.784 712.128 365.414ZM897.306 198.249C897.248 197.745 897.189 197.245 897.127 196.749C897.848 188.257 897.689 182.857 898.008 185.057C898.008 185.062 898.008 185.066 898.008 185.071C897.914 189.486 897.678 193.854 897.306 198.249ZM349.655 114.876C349.874 114.739 352.891 115.087 357.061 115.758C357.798 115.876 358.605 115.998 359.404 116.111C359.131 116.136 358.863 116.161 358.587 116.183C358.094 116.093 357.584 116.01 357.037 115.925C354.448 115.524 350.842 115.193 343.767 114.181C343.78 114.083 343.794 113.986 343.807 113.889C345.758 114.215 347.707 114.544 349.655 114.876ZM896.651 205.666C896.512 208.327 895.443 215.649 895.9 210.802C896.246 207.095 896.727 204.244 896.651 205.666ZM519.491 113.219C519.2 115.093 518.957 116.989 518.749 118.895C518.548 119.864 518.355 120.858 518.171 121.845C518.171 121.841 518.172 121.836 518.172 121.832C518.53 118.929 518.957 116.054 519.491 113.219ZM795.284 356.888C801.311 354.643 807.275 351.812 813.372 349.067C813.455 349.089 813.538 349.111 813.622 349.134C807.448 351.729 805.139 353.014 803.735 353.645C803.742 353.642 803.748 353.64 803.754 353.637C799.264 355.673 794.996 357.439 790.674 358.876C792.227 358.254 793.761 357.589 795.284 356.888ZM773.835 362.937C774.69 362.422 775.785 362.06 782.188 360.82C783.339 360.603 784.655 360.338 786.171 359.987C785.802 360.132 785.443 360.272 785.074 360.412C784.036 360.661 783.089 360.866 782.235 361.04C778.867 361.729 777.131 362.108 777.884 362.1C776.529 362.379 775.179 362.661 773.835 362.937ZM862.954 315.787C862.246 316.775 855.189 323.224 855.5 322.787C855.713 322.709 864.488 313.997 862.954 315.787ZM276.558 108.243C278.791 108.239 281.02 108.245 283.247 108.268C280.288 108.158 277.319 108.079 274.347 108.013C275.083 108.089 275.824 108.165 276.558 108.243ZM251.876 107.385C250.262 107.364 255.499 107.956 245.84 107.615C252.872 107.992 259.895 108.09 266.863 108.136C263.596 108.06 260.315 107.977 257.032 107.857C257.606 107.769 258.182 107.679 258.756 107.589C256.466 107.539 254.172 107.474 251.876 107.385ZM244.327 107.302C246.076 107.272 242.786 107.051 238.536 106.682C233.711 106.234 227.646 106.106 226.68 106.128C226.265 106.129 224.369 106.321 223.655 106.372C226.58 106.352 229.505 106.407 232.427 106.536C231.456 106.556 230.461 106.583 229.49 106.62C232.494 106.72 235.497 106.899 238.499 107.153C238.929 107.189 239.357 107.224 239.782 107.258C239.358 107.209 238.932 107.159 238.503 107.107C237.441 106.979 236.426 106.863 235.365 106.754C236.429 106.811 237.448 106.874 238.515 106.95C240.46 107.088 242.388 107.204 244.327 107.302ZM323.159 111.088C320.692 110.808 318.225 110.542 315.758 110.292C316.26 110.245 316.763 110.199 317.267 110.155C318.742 110.312 320.223 110.475 321.698 110.643C322.184 110.791 322.675 110.94 323.159 111.088ZM272.809 107.854C276.429 108.342 286.286 107.451 274.766 107.691C273.608 107.72 272.465 107.807 272.809 107.854ZM219.406 106.259C211.758 106.25 213.538 106.879 220.708 106.417C221.07 106.396 219.982 106.266 219.406 106.259ZM161.477 109.77C160.855 109.82 159.788 110.088 153.845 110.345C152.879 110.456 151.888 110.573 150.924 110.691C153.218 110.424 172.787 109.452 170.087 109.41C167.086 109.501 164.577 109.575 161.477 109.77ZM180.496 108.324C183.544 108.308 186.574 108.131 189.568 107.884C188.59 108.044 187.603 108.198 186.609 108.34C188.097 108.263 189.578 108.163 191.052 108.049C193.556 107.685 196.041 107.283 198.513 106.885C192.302 107.523 186.013 108.217 179.607 108.18C179.388 108.179 179.17 108.178 178.952 108.177C179.17 108.199 179.388 108.22 179.607 108.242C179.903 108.271 180.199 108.298 180.496 108.324ZM259.385 106.505C253.93 106.51 247.278 106.28 238.62 105.615C238.169 105.58 237.716 105.547 237.261 105.515C237.257 105.515 237.252 105.515 237.248 105.515C236.792 105.485 235.974 105.532 234.499 105.453C233.251 104.941 208.419 105.473 210.374 105.829C219.981 105.291 223.553 105.19 225.855 105.57C226.322 105.488 226.801 105.409 227.261 105.331C232.724 105.334 235.866 105.634 238.595 105.929C240.522 106.142 242.228 106.334 244.386 106.502C244.369 106.437 244.352 106.373 244.335 106.308C247.863 106.505 251.382 106.633 254.909 106.714C254.411 106.743 253.913 106.772 253.416 106.799C254.661 106.835 255.908 106.864 257.154 106.888C260.19 106.758 264.027 106.751 259.385 106.505ZM167.077 108.675C164.311 107.995 137.835 110.851 125.627 112.452C132.083 111.992 141.9 110.485 148.84 109.817C162.254 108.599 152.997 109.613 155.278 109.486C156.406 109.413 163.996 108.588 167.077 108.675ZM280.286 106.777C273.56 106.712 269.777 106.616 263.924 106.745C264.414 106.784 264.903 106.823 265.393 106.861C267.412 106.826 283.685 106.878 280.286 106.777ZM107.738 114.299C119.509 113.045 115.345 113.784 119.514 113.226C119.937 113.17 120.458 113.098 121.086 113.006C120.561 113.055 120.027 113.103 119.507 113.147C115.578 113.479 111.651 113.822 107.726 114.173C107.73 114.215 107.734 114.257 107.738 114.299ZM896.927 220.652C896.543 223.859 896.058 227.266 895.541 230.19C895.186 232.218 894.861 234 894.567 235.319C894.839 233.598 895.112 231.879 895.393 230.165C895.715 228.199 896.012 226.244 896.277 224.282C896.505 223.075 896.721 221.866 896.927 220.652ZM852.983 79.0587C854.099 79.6604 858.045 82.6808 858.431 83.0441C859.19 83.6489 859.021 83.4362 859.043 83.4313C863.883 87.571 859.334 83.8527 862.782 87.0492C863.286 87.4555 868.398 92.5589 871.314 96.8576C872.066 97.9165 872.711 98.8472 873.217 99.5902C877.125 105.298 880.686 111.226 881.97 113.472C884.169 117.238 887.901 124.445 890.828 130.983C892.036 133.676 892.556 134.585 893.683 137.323C894.847 140.12 896.003 143.41 897.41 146.926C902.253 163.31 901.773 187.019 900.235 202.266C899.963 205.052 899.729 207.546 899.528 209.731C899.148 213.89 898.892 217.88 898.612 220.072C898.35 221.797 898.065 223.519 897.757 225.234C897.644 227.411 897.431 228.983 897.159 230.468C896.759 232.641 896.258 234.614 895.669 238.003C895.039 241.626 894.899 243.341 894.816 243.828C894.261 247.056 893.909 248.63 893.434 251.155C892.905 253.99 892.153 258.068 891.925 259.071C891.746 259.679 892.15 257.706 889.531 268.569C887.667 275.909 885.436 283.107 882.357 290.033C880.793 293.53 879.329 297.087 877.692 300.596C878.746 296.955 880.32 294.104 882.212 289.968C882.264 289.854 882.317 289.738 882.369 289.621C882.881 288.466 882.474 289.163 882.911 288.152C884.168 285.315 886.239 279.721 886.954 277.242C887.741 274.573 887.269 275.425 888.3 272.052C888.351 271.881 888.291 272.45 888.525 271.652C890.788 263.615 891.227 260.899 893.18 250.517C893.705 247.777 895.095 239.48 896.634 230.378C898.598 219.451 899.414 207.19 899.967 202.239C900.089 200.971 900.151 200.191 900.16 200.014C900.235 198.217 900.097 199.339 899.773 202.22C899.058 208.012 898.087 220.797 896.335 230.326C895.369 235.983 894.63 240.586 894.386 242.045C894.089 243.857 894.51 241.976 894.25 243.627C894.135 244.326 892.898 250.584 891.639 256.74C890.239 264.214 886.518 279.039 883.68 285.692C883.129 287.089 882.547 288.479 881.935 289.844C878.073 298.436 874.839 307.41 868.356 314.086C854.735 328.553 838.785 341.048 820.613 349.03C808.124 354.441 796.091 360.988 782.792 363.663C772.874 365.736 763.049 368.605 752.989 368.505C745.437 368.458 737.926 368.896 730.406 368.897C729.081 368.895 727.333 368.806 723.017 368.688C715.682 368.473 708.338 367.832 701.064 366.598C677.747 362.487 653.695 358.974 631.882 349.042C609.901 338.611 588.485 324.687 575.16 303.963C575.158 303.96 575.152 303.951 575.15 303.948C564.201 287.857 552.985 271.8 542.688 255.499C539.379 249.61 536.617 243.351 534.049 237.083C530.672 228.756 527.719 220.286 525.326 211.655C522.986 203.157 520.795 194.588 518.884 185.89C518.499 183.691 518.138 181.489 517.806 179.285C518.755 184.905 521.34 195.043 521.588 195.96C521.672 196.294 522.086 198.418 522.962 201.797C524.2 206.547 524.861 208.594 524.965 208.986C525.295 210.193 524.992 209.419 525.31 210.575C525.405 210.915 525.498 211.251 525.59 211.582C527.855 219.622 530.022 225.918 532.834 233.209C536.211 241.765 538.283 245.955 541.129 251.985C541.534 252.617 541.947 253.25 542.372 253.884C542.531 254.225 542.774 254.713 543.074 255.278C546.845 262.077 561.799 283.926 568.092 293.155C570.251 296.313 569.981 295.697 570.698 296.748C571.115 297.357 570.893 297.288 575.361 303.804C575.363 303.808 575.371 303.82 575.374 303.824C575.712 304.342 576.083 304.899 576.492 305.495C579.344 309.584 580.304 310.496 581.868 312.44C582.734 313.484 582.497 313.396 583.778 314.868C591.282 323.305 598.548 329.154 607.772 335.283C610.387 336.989 610.473 336.9 611.064 337.278C613.238 338.64 616.963 341.122 622.749 344.192C625.263 345.526 628.457 347.149 631.985 348.826C641.736 353.54 654.715 357.01 661.017 358.475C662.283 358.774 663.347 358.906 664.278 359.125C665.678 359.453 666.209 359.696 666.455 359.752C671.168 360.8 668.353 360.064 671.51 360.769C673.214 361.141 674.964 361.652 678.944 362.441C684.202 363.468 683.198 363.099 685.396 363.523C685.628 363.567 685.676 363.695 687.842 364.088C691.706 364.789 696.399 365.606 701.096 366.409C706.345 367.315 711.652 367.876 715.806 368.16C718.06 368.313 719.741 368.333 722.889 368.433C726.705 368.723 741.193 368.244 752.993 368.163C760.649 368.219 767.007 366.679 768.16 366.491C768.463 366.422 765.292 366.893 770.297 365.886C771.765 365.651 773.234 365.4 774.705 365.144C777.115 364.492 779.527 363.828 781.955 363.191C781.954 363.246 782.222 363.236 782.689 363.178C785.629 363.012 795.948 359.698 795.668 359.307C797.153 358.741 798.627 358.142 800.093 357.519C803.266 356.496 805.251 355.511 811.201 352.969C812.083 352.474 812.963 351.98 813.852 351.483C814.105 351.43 814.359 351.376 814.614 351.322C816.246 350.401 818.552 349.383 820.431 348.614C822.014 347.967 823.262 347.448 823.547 347.314C825.917 346.202 827.632 345.215 828.713 344.643C832.813 342.572 841.302 337.356 845.549 334.05C845.749 333.897 845.481 333.941 846.686 333.016C848.861 331.321 849.2 331.316 851.908 328.818C852.515 328.391 853.12 327.958 853.724 327.52C854.298 326.996 854.891 326.448 855.457 325.915C858.965 322.875 862.366 319.664 865.616 316.358C862.874 318.85 865.128 316.464 867.901 313.657C868.288 313.265 868.677 312.862 869.059 312.456C870.092 311.339 869.319 312.452 869.663 312.078C869.916 311.843 873.279 307.729 875.647 302.824C878.064 297.964 880.134 292.727 880.403 292.088C880.796 291.284 881.187 290.491 881.587 289.689C881.635 289.594 881.682 289.499 881.729 289.404C881.853 288.917 881.973 288.428 882.089 287.936C882.328 287.451 882.562 286.963 882.793 286.471C884.879 281.494 889.007 268.004 889.462 265.469C889.75 264.131 889.179 265.262 890.591 258.862C890.735 258.659 890.878 258.456 891.021 258.253C891.339 256.785 891.647 255.31 891.945 253.838C892.474 251.064 893.02 246.984 892.926 246.833C893.147 245.981 893.369 245.113 893.586 244.26C893.719 242.579 894.813 235.819 895.825 230.239C896.243 227.955 896.602 225.867 896.851 224.412C896.993 222.936 897.115 221.461 897.223 219.982C897.543 218.015 897.836 216.041 898.12 214.062C898.603 209.454 897.981 214.312 898.067 213.327C898.215 211.678 899.033 204.65 899.194 202.163C899.235 201.518 899.227 201.182 899.154 201.32C899.29 199.881 899.412 198.436 899.518 197.002C899.657 196.28 899.794 195.522 899.925 194.792C899.772 192.296 900.226 188.012 900.051 179.217C900.109 178.496 900.163 177.728 900.212 176.999C900.054 174.278 899.837 171.566 899.555 168.864C899.628 168.307 899.696 167.738 899.762 167.169C899.685 166.003 899.595 164.82 899.49 163.632C899.015 161.266 898.709 156.972 898.212 154.831C897.457 151.728 897.884 154.161 898.629 160.024C898.455 159.86 897.759 152.783 895.97 147.567C894.451 143.761 893.271 140.44 892.657 138.966C892.788 139.198 892.921 139.436 893.056 139.679C894.073 142.245 894.935 144.81 896.041 147.536C896.448 148.539 896.8 150.017 897.09 151.337C897.71 153.224 897.396 150.412 896.336 147.404C895.187 144.548 894.023 141.281 893.146 139.08C892.971 138.651 892.166 136.052 889.986 131.267C889.172 129.377 885.439 122.395 884.68 121.078C878.669 110.412 883.472 118.041 877.025 107.946C878.541 109.951 874.799 104.146 870.726 98.2731C870.641 98.1508 870.482 97.9166 870.264 97.5971C868.84 95.251 863.659 89.1772 863.156 88.826C860.067 85.8411 863.396 89.1162 858.757 84.9905C858.218 84.4708 857.672 83.9625 857.111 83.4586C855.965 82.5738 854.784 81.7238 853.582 80.9161C845.918 76.5735 844.065 75.7175 841.24 74.3333C840.079 73.8209 841.543 74.5541 838.506 73.2865C837.357 72.8245 836.121 72.2035 832.956 71.115C822.989 67.8499 819.357 67.6187 810.041 64.8597C808.574 64.5823 807.106 64.3046 805.638 64.0223C804.676 63.704 803.719 63.3847 802.758 63.0607C802.16 62.9324 801.627 62.8157 801.151 62.7097C795.785 61.7523 797.84 62.0285 795.348 61.69C788.164 60.7932 773.146 61.4857 771.868 61.7695C765.53 61.5968 758.019 62.6711 755.532 62.844C754.044 62.901 752.575 62.9603 751.082 63.0245C749.358 63.2198 747.613 63.421 745.888 63.6237C746.686 63.0973 737.731 64.3231 736.873 64.4124C736.096 64.4848 727.858 65.1589 721.688 65.7C719.786 65.8658 718.095 66.0317 716.889 66.1612C711.756 66.6703 702.917 68.0701 702.132 68.2175C701.229 68.3207 692.592 69.7082 685.786 70.888C685.177 70.9897 684.262 71.1432 683.109 71.326C673.158 72.9324 645.244 79.2464 647.171 78.5359C649.45 78.0238 652.696 77.3107 655.499 76.6998C659.175 75.9686 670.361 73.2688 683.067 71.0614C696.627 68.6515 711.755 66.1227 721.654 65.3331C724.647 65.048 727.126 64.8126 728.91 64.6439C752.593 62.835 777.67 58.7137 801.232 62.3889C804.103 63.109 806.971 63.7881 809.825 64.4628C811.367 64.8275 811.627 64.7687 812.949 65.0825C814.957 65.5537 820.003 66.9183 821.959 67.4442C829.305 69.2942 837.992 72.3162 841.656 74.008C849.895 77.6573 855.141 81.0628 860.313 85.4789C861.652 86.5711 866.991 91.7123 870.764 97.2449C871.687 98.5563 872.55 99.8024 873.36 100.981C874.131 102.065 874.92 103.196 875.67 104.29C874.69 102.744 872.887 99.9665 870.924 97.1323C868.847 94.1 866.358 91.1611 864.691 89.4259C859.881 84.4492 856.787 82.5041 854.724 81.0196C853.087 79.6363 843.581 74.1785 838.849 72.5201C837.409 71.95 837.067 71.9547 835.826 71.497C829.089 68.9863 819.885 66.6367 813.826 65.0702C815.918 65.5936 805.184 63.1296 801.291 62.1539C800.607 61.9852 800.093 61.8844 799.972 61.8589C798.593 61.5839 797.097 61.2058 794.183 60.944C788.6 60.5586 789.296 60.8228 782.273 60.5731C780.555 60.6585 778.802 60.7662 777.07 60.8893C776.947 60.4308 755.012 62.1564 748.75 62.3881C748.567 62.2536 777.109 60.1766 779.475 60.3773C785.83 60.2909 793.723 60.0567 801.377 61.8121C810.665 64.1405 820.153 66.2248 827.385 68.3441C831.42 69.2953 843.625 73.8195 844.433 74.4388C845.859 75.1288 844.521 74.6091 845.135 74.9101C857.402 81.605 851.303 78.2461 852.983 79.0587ZM244.427 105.787C248.705 106.019 252.971 106.151 257.243 106.219C256.935 106.142 256.626 106.066 256.317 105.989C254.364 105.975 252.408 105.947 250.448 105.902C248.952 105.804 247.444 105.695 245.946 105.575C245.443 105.648 244.931 105.718 244.427 105.787ZM233.987 104.797C230.331 104.584 230.14 104.756 229.305 104.734C226.781 104.693 224.605 104.623 222.164 104.661C224.986 104.945 230.967 104.889 233.987 104.797ZM310.041 107.697C309.298 107.645 304.756 107.524 299.314 106.962C298.686 106.897 298.052 106.827 297.416 106.751C292.705 106.57 288.012 106.495 283.301 106.5C288.278 106.5 294.423 106.792 299.3 107.168C302.261 107.391 304.752 107.619 306.227 107.741C307.71 107.864 308.001 107.774 309.187 107.879C316.016 108.485 322.606 109.525 323.348 109.222C316.891 108.579 311.098 107.772 310.041 107.697ZM268.714 106.092C267.613 106.166 266.513 106.241 265.411 106.314C269.39 106.341 273.359 106.351 277.325 106.398C276.252 106.304 275.18 106.212 274.109 106.122C272.31 106.109 270.514 106.101 268.714 106.092ZM572.963 96.0698C570.548 96.4909 568.108 96.8879 565.68 97.257C565.813 97.1798 568.588 96.7494 569.602 96.5399C569.598 96.5407 569.593 96.5414 569.589 96.5421C570.714 96.3111 570.229 96.3185 572.284 95.9345C572.51 95.9799 572.736 96.025 572.963 96.0698ZM517.025 176.419C516.761 174.847 515.507 168.159 515.01 160.76C514.181 149.195 514.667 135.944 514.747 137.913C514.734 139.535 514.689 152.465 514.969 156.269C515.024 157.409 515.119 158.98 515.25 160.744C515.659 166.88 517.191 175.373 517.025 176.419ZM517.179 109.812C517.036 109.121 514.564 132.579 514.799 134.92C514.786 134.426 514.749 133.677 514.763 133.018C514.714 129.819 516.033 114.765 517.179 109.812ZM706.929 66.6733C705.053 67.0431 703.191 67.4297 701.319 67.835C701.795 67.6176 702.263 67.4026 702.743 67.1869C704.139 67.0058 705.53 66.8351 706.929 66.6733ZM876.45 105.62C884.822 118.618 891.601 132.524 896.908 147.15C901.244 162.544 901.308 179.344 900.364 195.498C900.61 192.724 900.803 189.928 900.939 187.135C901.176 173.956 900.804 159.911 897.045 147.089C892.072 133.427 885.863 120.457 878.704 108.824C877.972 107.765 877.203 106.669 876.45 105.62ZM319.016 107.97C327.122 108.859 333.859 109.825 342.675 110.862C334.317 109.567 330.134 109.268 322.002 108.092C321.998 108.091 321.993 108.091 321.989 108.09C321.001 108.048 320.007 108.007 319.016 107.97ZM500.554 106.092C499.264 106.234 497.99 106.376 496.688 106.526C495.496 106.663 494.319 106.795 493.145 106.924C494.312 106.749 495.482 106.571 496.667 106.387C498.451 106.11 500.227 105.841 502.002 105.578C501.505 105.751 501.044 105.919 500.554 106.092ZM823.2 348.541C822.505 348.842 821.718 349.184 820.842 349.555C811.903 353.386 795.069 361.633 788.76 362.704C788.323 362.792 792.254 361.643 785.796 363.141C790.663 361.979 794.002 360.78 794.413 360.823C795.801 360.276 797.176 359.699 798.541 359.098C800.855 358.227 803.148 357.288 805.428 356.321C805.114 356.277 805.303 356.218 808.816 354.749C810.38 353.992 811.942 353.231 813.507 352.472C814.212 352.228 814.904 351.991 815.608 351.749C816.941 351.039 818.27 350.338 819.612 349.639C820.012 349.472 820.369 349.324 820.685 349.196C824.554 347.584 821.932 348.95 823.2 348.541ZM848.568 332.934C848.055 333.396 839.85 339.545 833 343.319C826.181 347.118 821.24 349.243 829.155 345.066C833.268 342.879 837.25 340.467 841.111 337.861C838.251 340.523 848.39 332.844 849.121 332.084C853.037 328.992 857.906 324.89 860.532 322.391C862.789 320.258 864.04 318.874 865.581 317.317C866.503 316.383 867.502 315.35 868.536 314.256C873.478 309.269 876.962 301.71 877.692 300.596C875.409 305.528 872.6 310.341 868.706 314.417C868.459 314.679 868.203 314.949 867.938 315.227C863.499 319.782 859.742 324.067 850.222 331.373C847.91 333.231 848.843 332.705 848.568 332.934ZM485.745 108.016C486.097 108.233 471.068 110.11 470.97 109.991C470.942 109.945 475.814 109.361 476.513 109.248C476.518 109.248 476.522 109.247 476.527 109.247C476.817 109.201 475.326 109.302 477.626 108.988C480.324 108.681 483.054 108.354 485.745 108.016ZM532.04 233.306C531.652 232.447 527.727 222.599 524.743 211.817C521.233 199.416 518.309 186.033 518.222 185.302C518.161 184.934 518.323 185.431 518.324 185.28C519.823 193.057 522.424 203.097 524.905 211.772C525.824 214.999 526.783 218.03 527.658 220.687C528.564 223.414 528.215 222.626 528.263 222.781C528.265 222.788 528.267 222.794 528.269 222.801C528.765 224.358 531.475 231.206 532.04 233.306ZM774.2 365.968C776.127 365.505 778.052 365.032 779.983 364.569C780.489 364.529 780.997 364.49 781.503 364.452C781.498 364.453 781.494 364.454 781.489 364.455C779.056 364.947 776.629 365.465 774.2 365.968ZM705.91 368.057C706.394 368.072 706.874 368.084 707.362 368.095C712.309 368.701 717.286 369.056 722.269 369.216C721.765 369.171 721.266 369.124 720.766 369.076C728.296 369.276 731.423 369.344 735.439 369.267C735.434 369.267 735.43 369.267 735.425 369.267C735.857 369.256 736.382 369.144 737.984 369.103C741.343 369.017 750.422 368.708 752.985 368.859C753.235 368.869 753.422 368.878 753.535 368.887C754.003 368.923 753.749 368.957 752.984 368.972C749.345 368.953 734.263 369.447 730.991 369.395C729.2 369.41 727.038 369.483 725.952 369.467C724.751 369.447 723.134 369.303 720.226 369.182C719.372 369.197 709.946 368.703 705.91 368.057ZM621.579 344.453C622.982 345.085 625.781 346.651 626.853 347.163C627.109 347.287 625.191 346.219 627.574 347.384C628.214 347.774 628.87 348.168 629.513 348.552C626.84 347.233 624.194 345.87 621.579 344.453ZM460.535 110.931C460.945 110.88 469.03 110.021 469.412 109.98C474.267 109.655 457.548 111.449 460.535 110.931ZM256.458 104.536C258.228 104.406 249.197 104.367 238.779 103.575C227.217 102.576 213.925 103.405 211.687 103.6C211.906 103.71 222.42 103.068 216.917 103.554C221.627 103.106 233.872 103.352 238.759 103.83C239.314 103.871 239.772 103.902 240.116 103.924C242.192 104.049 242.718 103.915 243.036 103.931C244.267 104.043 255.137 104.656 256.458 104.536ZM175.244 106.345C176.698 106.315 178.146 106.295 179.613 106.287C182.363 106.273 185.113 106.116 187.851 105.887C185.111 106.082 182.36 106.203 179.613 106.184C177.387 106.168 175.194 106.178 172.97 106.215C173.722 106.255 174.496 106.298 175.244 106.345ZM169.958 106.377C170.084 106.12 155.827 106.998 152.092 107.39C156.328 107.308 163.344 106.505 169.958 106.377ZM406.801 112.737C413.376 112.491 416.209 113.002 408.21 112.899C407.965 112.896 406.527 112.749 406.801 112.737ZM821.665 350.082C821.579 350.121 821.409 350.198 821.17 350.305C818.572 351.434 807.952 356.472 807.232 356.69C804.792 357.491 813.175 353.802 815.92 352.439C819.722 350.573 815.345 352.378 821 349.916C821.949 349.506 823.164 348.974 824.729 348.241C824.26 348.403 823.788 348.564 823.314 348.722C829.683 345.644 827.749 346.938 828.913 346.42C829.27 346.271 833.146 344.097 833.836 343.699C842.659 338.952 822.84 350.094 821.665 350.082ZM568.401 95.3834C581.248 92.9947 575.802 94.3203 588.902 91.4596C589.399 91.6225 570.119 95.3787 568.401 95.3834ZM893.897 251.884C891.33 265.174 888.957 276.18 883.974 287.856C885.237 287.363 895.027 248.543 893.897 251.884ZM527.563 82.0148C523.891 88.6935 520.181 95.5466 517.536 103.092C512.706 121.428 512.785 141.183 513.862 160.836C515.262 178.189 519.665 195.255 524.202 211.967C527.498 223.73 531.737 235.124 536.647 245.981C539.222 251.542 539.677 251.976 540.683 253.946C541.254 255.024 541.199 255.082 541.719 256.051C541.807 256.215 541.927 256.427 542.11 256.732C552.563 273.109 563.513 288.88 574.198 304.601C587.809 325.772 609.416 339.71 631.347 350.164C653.299 360.18 677.187 363.686 700.557 367.793C700.648 367.809 700.747 367.825 700.853 367.843C705.565 368.985 725.229 370.088 729.51 370.16C732.823 370.481 718.095 370.089 715.653 369.764C713.809 369.632 713.729 369.745 712.496 369.638C711.198 369.519 712.281 369.538 710.769 369.389C707.513 369.06 704.117 368.617 700.816 368.063C697.656 367.535 694.574 367.014 691.778 366.522C671.111 362.758 650.313 359.105 631.269 350.328C609.131 339.792 587.559 325.798 573.988 304.726L573.996 304.739C568.017 296.013 562.028 287.228 556.061 278.395C552.237 272.726 552.945 273.944 552.751 273.659C552.749 273.655 552.746 273.651 552.744 273.647C548.992 268.021 545.063 262.305 541.388 256.239C534 242.606 528.324 227.533 523.918 212.046C519.589 196.143 515.544 180.018 513.833 163.993C513.729 162.947 513.639 161.897 513.567 160.856C512.499 141.569 512.283 121.972 517.315 103.019C519.662 96.3427 522.965 90.1746 526.324 84.0506C526.733 83.3714 527.148 82.6892 527.563 82.0148ZM846.457 335.106C843.87 337.351 843.252 337.839 832.79 344.224C831.891 344.665 830.989 345.094 830.082 345.512C835.791 342.44 841.252 338.937 846.474 335.094C846.469 335.098 846.463 335.102 846.457 335.106ZM772.772 367.046C771.71 367.445 762.982 369.961 752.974 369.896C745.146 369.837 736.675 370.227 731.188 370.256C728.931 370.116 746.846 369.731 751.043 369.699C751.416 369.696 752.092 369.684 752.976 369.679C757.152 369.813 765.989 368.464 772.875 366.971C772.841 366.996 772.806 367.021 772.772 367.046ZM302.786 105.053C304.772 105.219 306.756 105.399 308.739 105.591C305.646 105.349 302.548 105.137 299.451 104.961C297.556 104.853 295.698 104.764 293.804 104.688C295.697 104.776 297.555 104.878 299.448 104.998C305.506 105.384 311.555 105.905 317.593 106.521C316.13 106.26 314.669 106.005 313.203 105.756C309.733 105.485 306.259 105.248 302.786 105.053ZM328.446 107.719C314.623 106.044 329.031 108.002 332.483 108.341C334.553 108.531 329.855 107.893 328.446 107.719ZM364.291 112.21C362.428 112.022 360.027 111.76 357.691 111.402C351.882 110.512 346.264 109.798 349.512 110.516C352.474 110.861 354.984 111.204 357.664 111.59C361.237 112.096 365.179 112.465 370.997 112.582C369.522 112.469 368.057 112.34 366.581 112.188C366.575 112.188 366.568 112.188 366.561 112.187C365.816 112.202 365.036 112.208 364.291 112.21ZM322.155 106.751C313.075 105.891 339.297 108.956 331.074 107.823C330.691 107.758 322.515 106.772 322.155 106.751ZM512.6 137.86C512.733 136.758 512.598 143.799 512.653 146.135C512.701 150.642 512.86 155.718 513.201 160.881C513.636 167.369 514.684 173.926 515.78 179.683C515.593 178.906 515.411 178.138 515.231 177.359C514.26 171.924 513.451 166.435 513.071 160.889C512.56 153.223 512.413 145.541 512.6 137.86ZM523.446 211.724C523.485 211.864 523.524 212.005 523.563 212.145C525.471 218.994 527.752 225.73 530.278 232.364C530.515 232.998 531.574 235.987 530.694 233.799C527.988 226.698 525.563 219.484 523.56 212.145C523.522 212.005 523.484 211.865 523.446 211.724ZM878.22 302.52C875.909 307.611 882.968 293.157 882.244 293.663C880.942 296.608 879.662 299.591 878.22 302.52ZM894.345 253.493C893.659 256.91 892.927 260.314 892.12 263.707C892.16 263.721 892.2 263.735 892.24 263.749C893.008 260.339 893.7 256.923 894.345 253.493ZM515.236 109.426C514.577 113.109 513.463 121.864 513.133 127.363C513.236 123.578 514.208 114.575 515.236 109.426ZM814.172 353.998C814.609 353.803 794.333 362.648 801.438 359.78C805.75 357.949 809.962 355.949 814.172 353.998ZM771.651 368.182C776.295 367.202 779.839 366.35 778.861 366.416C776.422 366.966 773.98 367.53 771.52 368.059C771.564 368.1 771.608 368.141 771.651 368.182ZM388.88 112.222C396.832 112.075 404.79 111.846 412.756 111.745C412.46 111.708 412.164 111.67 411.869 111.632C404.185 111.737 396.519 111.955 388.85 112.097C388.86 112.139 388.87 112.18 388.88 112.222ZM515.908 104.863C516.104 104.156 516.318 103.448 516.546 102.766C518.183 98.091 520.353 93.8233 522.568 89.56C520.396 93.8443 518.27 98.1381 516.685 102.811C516.463 103.498 516.256 104.209 516.066 104.921C516.011 104.906 515.957 104.892 515.903 104.877C515.905 104.872 515.906 104.868 515.908 104.863ZM280.396 103.071C304.814 103.55 273.646 102.407 267.258 102.84C267.251 102.839 267.244 102.839 267.237 102.839C266.676 102.861 267.861 102.992 266.927 103.036C269.4 102.995 271.875 102.95 274.354 102.914C276.614 103.002 278.879 103.097 281.139 103.208C281.884 103.194 282.629 103.182 283.378 103.172C282.379 103.135 281.394 103.102 280.396 103.071ZM182.368 104.365C181.355 104.396 180.441 104.408 179.618 104.408C169.149 104.512 172.793 104.57 179.618 104.576C183.927 104.633 189.586 104.142 193.632 103.627C193.54 103.613 184.347 104.398 182.368 104.365ZM240.179 102.047C243.61 102.328 247.069 102.543 250.513 102.699C250.957 102.68 251.4 102.661 251.841 102.64C249.193 102.516 246.547 102.361 243.906 102.168C242.657 102.136 241.417 102.096 240.179 102.047ZM354.194 109.565C355.448 109.735 356.77 109.939 357.876 110.124C360.402 110.524 361.695 110.804 357.844 110.345C356.064 110.108 353.239 109.703 348.978 109.078C348.993 109.037 349.008 108.997 349.023 108.956C349.734 109.063 351.809 109.397 351.921 109.41C352.248 109.446 351.882 109.251 354.194 109.565ZM141.357 105.619C140.739 105.678 140.321 105.258 133.889 106.518C131.926 106.733 129.962 106.951 128.008 107.161C127.524 107.319 127.019 107.478 126.531 107.635C134.078 106.64 134.918 106.722 135.47 106.662C137.994 106.371 136.117 106.498 137.747 106.298C141.947 105.757 151.595 104.854 147.192 105.008C145.607 105.061 141.986 105.56 141.357 105.619ZM156.316 103.91C155.386 104.016 158.396 103.923 157.695 104.012C157.075 104.056 147.848 105.011 150.369 105.009C151.876 104.858 153.397 104.715 154.916 104.583C155.423 104.482 155.934 104.381 156.449 104.281C157.919 104.226 159.394 104.179 160.879 104.143C163.352 103.837 168.643 103.391 162.341 103.593C164.648 103.474 166.979 103.381 169.283 103.318C170.487 103.349 171.688 103.388 172.885 103.434C172.262 103.338 171.621 103.245 170.991 103.154C166.1 103.283 161.189 103.541 156.316 103.91ZM85.5877 111.202C85.8732 111.23 86.1615 111.258 86.4393 111.286C78.038 112.024 65.0218 113.241 72.4506 112.877C83.8088 111.797 95.1335 110.674 106.509 109.632C107.254 109.519 108.004 109.406 108.758 109.293C100.294 110.256 102.854 109.318 95.4971 110.231C94.2564 110.387 97.8982 110.271 90.0636 110.887C90.3356 110.803 90.6086 110.719 90.8828 110.636C89.1159 110.824 87.3487 111.013 85.5877 111.202ZM13.477 122.148C26.5938 115.399 11.9222 122.496 9.75788 124.046C9.76203 124.043 9.76619 124.041 9.77033 124.039C3.58835 128.007 17.2672 120.141 18.2926 119.819C18.8379 119.556 19.7717 119.191 21.1979 118.563C21.3485 118.494 21.7964 118.357 21.9602 118.333C23.6453 118.112 26.0623 117.607 29.6161 116.557C26.9918 117.131 24.4319 117.703 21.9232 118.093C21.7454 118.119 21.2592 118.268 21.0957 118.343C18.5563 119.507 15.949 120.814 13.477 122.148ZM60.4557 113.601C59.2433 113.689 59.9192 113.719 59.4019 113.759C59.3974 113.76 59.393 113.76 59.3885 113.76C57.1111 113.921 53.5794 114.24 50.4583 114.173C41.827 113.684 32.4247 115.988 31.1679 116.415C34.0364 115.815 42.5133 113.979 50.4491 114.399C56.854 114.38 63.4367 113.536 64.1063 113.433C62.8834 113.493 61.6546 113.551 60.4557 113.601ZM114.468 108.631C119.183 108.023 108.544 108.97 105.768 109.322C105.255 109.389 109.588 109.261 114.468 108.631ZM476.416 105.488C486.71 104.268 473.224 106.115 477.91 105.681C475.949 105.917 473.982 106.146 472.008 106.367C473.481 106.079 474.939 105.787 476.416 105.488ZM903.241 154.766C903.662 157.25 903.366 156.08 903.401 156.298C903.656 157.936 903.93 159.438 904 160.077C905.037 171.641 904.153 163.945 904.142 163.857C904.016 163.621 904.2 166.647 903.666 162.477C903.431 159.943 903.129 157.38 902.74 154.836C902.471 153.571 902.188 152.349 901.861 151.076C900.807 145.931 902.399 152.64 902.623 153.333C902.737 153.608 901.93 148.82 903.241 154.766ZM494.759 102.587C495.117 102.57 495.586 102.538 496.065 102.505C497.861 102.381 499.749 102.263 496.598 102.888C496.593 102.888 496.589 102.889 496.584 102.89C496.478 102.911 496.326 102.939 496.138 102.972C495.009 103.173 492.711 103.54 491.904 103.699C485.261 104.427 487.765 103.841 494.759 102.587ZM885.939 112.123C883.857 108.579 881.664 105.082 879.396 101.672C879.345 101.788 879.294 101.903 879.242 102.019C880.472 103.86 881.653 105.684 882.824 107.553C883.186 108.241 883.529 108.906 883.889 109.606C882.399 107.334 880.846 105.059 879.281 102.856C877.603 100.178 875.867 97.5329 874.073 94.9145C874.007 94.8184 873.941 94.7227 873.875 94.6272C873.946 94.7194 874.016 94.812 874.087 94.9049C874.945 96.0343 875.759 97.121 876.598 98.265C875.568 96.7216 874.827 95.6678 874.212 94.8166C872.049 91.9355 871.912 91.8886 868.348 87.9778C866.83 86.1729 865.236 84.4621 863.529 82.8153C860.911 80.6226 858.134 78.6372 855.246 76.866C850.464 73.7937 850.005 73.5785 853.374 75.407C851.019 73.8203 848.194 72.5226 845.148 71.0537C844.896 70.9324 845.425 71.044 845.201 70.9387C829.122 64.0923 829.685 65.6276 827.1 64.6675C825.242 64.1111 817.869 62.0088 817.771 61.9263C817.661 61.8203 833.151 65.1758 809.043 59.3177C821.515 61.8184 835.782 66.4067 826.443 64.0905C830.479 64.8065 847.668 71.5554 848.583 72.5048C850.125 73.295 849.663 72.8664 851.565 73.9272C852.62 74.6613 855.716 76.1868 863.697 82.6258C864.642 83.5403 865.554 84.4748 866.444 85.4414C867.348 86.2771 868.221 87.1292 869.081 88.0146C867.504 86.0181 865.83 84.121 864.027 82.2985C868.512 86.4277 872.064 90.5686 874.791 94.4087C876.526 96.8521 877.991 99.053 879.185 101.082C881.983 105.315 883.259 107.426 882.249 105.495C883.048 106.781 883.843 108.091 884.627 109.413C885.071 110.315 885.505 111.211 885.939 112.123ZM524.995 98.3618C527.786 97.7602 529.467 97.4273 530.254 97.3218C530.897 97.2254 531.042 97.2643 530.687 97.3525C530.552 97.3872 530.419 97.4224 530.289 97.4582C526.44 98.5201 522.594 98.8439 524.995 98.3618ZM900.702 145.282C898.774 140.529 896.64 135.097 894.269 130.115C894.372 130.069 894.474 130.023 894.576 129.977C896.849 135.015 898.879 140.491 900.702 145.282ZM474.878 105.426C474.392 105.57 473.918 105.713 473.421 105.858C467.465 106.275 461.63 107.322 458.69 107.513C458.053 107.555 459.324 107.284 460.535 107.13C461.298 107.065 473.824 105.559 474.878 105.426ZM226.644 99.5496C228.91 99.6288 231.203 99.7524 233.463 99.9177C233.341 99.8172 233.219 99.7169 233.097 99.6167C231.977 99.5476 230.846 99.4885 229.726 99.4403C228.705 99.4681 227.664 99.5042 226.644 99.5496ZM252.087 100.964C256.027 101.086 259.975 101.137 263.942 101.162C248.854 100.863 261.225 101.037 252.096 100.69C252.093 100.781 252.09 100.873 252.087 100.964ZM292.425 101.499C291.932 101.42 291.448 101.342 290.953 101.265C286.927 101.094 282.913 100.995 278.906 100.939C281.442 100.779 283.986 100.635 286.536 100.517C288.013 100.561 289.483 100.614 290.964 100.676C291.457 100.95 291.936 101.224 292.425 101.499ZM895.479 262.976C895.004 265.372 892.717 273.614 892.716 273.236C893.583 269.785 894.344 266.325 895.03 262.862C895.144 262.871 895.257 262.879 895.37 262.887C895.423 262.388 895.475 261.887 895.525 261.388C895.988 259.434 896.428 257.481 896.852 255.523C896.947 254.517 897.04 253.504 897.127 252.5C897.423 251.523 897.714 250.552 898.002 249.577C896.462 259.099 896.236 258.735 895.844 260.71C895.632 261.709 895.561 262.358 895.517 262.72C895.504 262.805 895.492 262.891 895.479 262.976ZM900.065 141.636C900.565 142.944 901.056 144.299 901.418 145.143C904.614 155.542 904.373 160.84 905.307 168.389C904.694 165.629 904.785 156.842 901.178 145.25C897.629 135.376 892.271 123.589 889.067 118.262C888.533 117.077 888.01 115.938 887.462 114.777C890.637 120.666 892.793 124.776 894.199 127.736C895.305 130.092 895.095 129.873 895.18 130.053C895.184 130.062 895.188 130.071 895.192 130.08C897.686 135.639 898.431 137.388 900.065 141.636ZM466.464 105.994C469.472 105.535 474.785 104.903 474.85 105.088C471.905 105.509 468.991 105.906 466.032 106.287C466.629 106.172 465.952 106.074 466.464 105.994ZM297.134 101.206C297.82 101.229 298.741 101.279 299.697 101.345C302.11 101.511 304.553 101.768 302.78 101.753C302.536 101.75 300.725 101.588 299.684 101.54C298.882 101.502 298.532 101.524 299.672 101.715C299.765 101.731 299.867 101.748 299.981 101.767C299.875 101.759 299.771 101.752 299.67 101.745C294.49 101.393 295.779 101.166 297.134 101.206ZM739.418 58.942C737.397 59.1151 735.396 59.2895 733.393 59.4659C732.92 59.4301 732.444 59.3944 731.968 59.359C734.453 59.2166 736.924 59.078 739.418 58.942ZM440.892 108.098C438.286 108.64 433.721 108.536 428.834 108.933C428.14 108.944 427.37 108.95 426.698 108.945C425.575 108.937 424.467 108.933 423.346 108.932C423.341 108.932 423.336 108.932 423.332 108.932C423.281 108.827 423.231 108.721 423.18 108.616C424.359 108.617 425.521 108.622 426.7 108.631C431.295 108.638 436.137 108.388 440.892 108.098ZM862.73 81.3677C861.691 80.5508 860.636 79.7701 859.558 79.0176C857.727 77.565 855.822 76.2041 853.864 74.9375C854.964 75.5635 856.044 76.2148 857.114 76.8988C859.058 78.2907 860.937 79.7831 862.73 81.3677ZM408.488 108.709C414.999 108.547 417.46 108.851 409.127 108.984C405.621 109.051 401.666 108.901 408.488 108.709ZM816.761 355.993C818.673 355.096 820.584 354.211 822.498 353.345C822.592 353.302 822.686 353.26 822.78 353.217C823.528 352.965 824.268 352.707 825.008 352.442C824.199 352.803 823.388 353.156 822.567 353.502C820.63 354.315 818.697 355.148 816.761 355.993ZM266.162 100.503C266.422 100.575 266.682 100.647 266.941 100.719C268.921 100.717 270.903 100.712 272.891 100.711C272.393 100.638 271.894 100.565 271.394 100.492C269.647 100.495 267.902 100.501 266.162 100.503ZM830.51 349.533C832.125 348.669 833.728 347.767 835.299 346.84C836.386 346.249 837.452 345.651 838.52 345.032C837.076 345.963 835.618 346.864 834.145 347.737C832.938 348.357 831.729 348.955 830.51 349.533ZM347.823 106.746C350.309 107.004 360.159 108.681 351.244 107.476C345.562 106.718 347.445 106.707 347.823 106.746ZM334.457 104.856C343.933 105.955 336.756 105.759 325.498 103.873C336.882 105.33 333.899 104.806 334.457 104.856ZM250.7 99.6697C250.465 99.6603 250.27 99.7753 248.388 99.6976C245.526 99.5772 242.282 99.3981 239.124 99.1624C234.632 98.8231 230.314 98.6887 227.404 98.655C217.184 97.8273 189.767 101.759 179.626 101.729C177.419 101.753 175.847 101.813 175.146 101.878C174.256 101.96 176.31 102.149 175.948 102.164C174.888 102.187 168.734 102.242 169.882 102.374C173.127 102.272 176.375 102.225 179.625 102.234C182.229 102.241 184.865 102.114 187.524 101.913C186.1 101.91 184.685 101.885 183.284 101.829C197.596 100.929 192.933 101.076 197.138 100.948C199.617 100.589 202.119 100.226 204.637 99.8912C210.139 99.4546 215.719 99.1672 221.298 99.1554C220.043 99.1098 218.767 99.0778 217.499 99.0584C225.909 98.6813 223.574 98.868 228.175 99.067C228.186 98.9971 228.197 98.9272 228.208 98.8573C235.451 99.1841 237.475 99.2869 239.109 99.3545C239.3 99.365 239.484 99.3764 239.669 99.3903C243.16 99.6173 247.547 100.891 261.024 100.248C266.706 100.704 266.589 99.8837 269.946 100.315C279.65 99.8968 261.176 100.082 252.625 99.8037C252.621 99.8036 252.616 99.8034 252.612 99.8033C251.962 99.7828 252.999 99.7455 250.7 99.6697ZM300.539 101.33C300.122 101.274 299.852 101.232 299.707 101.199C299.523 101.159 299.539 101.134 299.712 101.124C301.338 100.954 316.733 102.394 310.219 102.244C309.072 102.156 307.924 102.072 306.775 101.992C304.694 101.756 302.611 101.535 300.525 101.329C300.53 101.329 300.534 101.329 300.539 101.33ZM516.131 98.6698C536.826 95.4869 525.229 97.6968 518.108 98.5431C516.68 98.7084 515.888 98.7627 516.131 98.6698ZM904.582 158.244C904.584 158.582 904.582 158.899 904.579 159.223C904.036 155.399 903.543 150.591 901.546 145.087C900.161 141.584 898.831 137.908 899.017 138.031C899.963 140.415 900.925 143.152 901.697 145.02C903.592 150.308 903.915 153.895 904.582 158.244ZM882.048 104.323C882.918 105.623 886.266 111.168 885.756 110.544C884.282 108.172 882.767 105.836 881.201 103.515C880.551 102.4 879.877 101.27 879.208 100.165C880.216 101.656 881.814 103.954 882.048 104.323Z" fill="black"/>
</svg>
