<svg width="125" height="25" viewBox="0 0 125 25" fill="none" xmlns="http://www.w3.org/2000/svg">
<path d="M114.28 24.6718C114.706 24.6718 115.051 24.3275 115.051 23.9009V9.82922C115.051 9.82922 115.051 9.81615 115.051 9.81C115.051 9.3143 115.005 8.73483 115.366 8.34212C115.74 7.89868 116.351 7.9909 116.868 8.13154L116.865 8.12924C117.439 8.30215 118.064 8.35749 118.714 8.25527C120.577 7.96247 122.032 6.4062 122.197 4.52561C122.419 1.96335 120.315 -0.168548 117.763 0.0105184C115.909 0.140399 114.352 1.5322 113.991 3.35668C113.836 4.14366 113.92 4.89143 114.164 5.56312L114.155 5.55544C114.3 5.94662 114.402 6.31013 114.33 6.76894C114.271 7.14168 113.934 7.54131 113.459 7.5905C113.101 7.62816 112.822 7.59741 112.439 7.62662C111.184 7.72268 110.18 8.66951 110.18 9.82845V23.8756C110.18 24.3152 110.536 24.671 110.975 24.671L114.28 24.6718Z" fill="#F5F5F7"/>
<path d="M100.295 7.19531C98.3318 7.19531 96.6329 7.80706 95.2181 9.0367C93.8018 7.80706 92.109 7.19531 90.1459 7.19531C88.1321 7.19531 86.4585 7.68486 85.1198 8.69624C83.5046 9.91282 82.7012 11.6581 82.7012 13.9437V23.88C82.7012 23.88 82.7012 24.2666 82.9393 24.4534C82.9393 24.4534 83.1459 24.6716 83.493 24.6716H86.6528C87.0522 24.6716 87.245 24.4403 87.245 24.4403C87.47 24.2282 87.47 23.88 87.47 23.88V12.16C87.47 11.4714 87.7281 10.8912 88.2619 10.4208C88.7895 9.94433 89.4324 9.69994 90.1728 9.69994C90.9132 9.69994 91.5691 9.94433 92.0837 10.4208C92.6244 10.8912 92.8817 11.4706 92.8817 12.16V23.8793C92.8817 23.8793 92.8948 24.2597 93.1329 24.4656C93.1329 24.4656 93.3187 24.6586 93.6928 24.6716H96.7811C97.1674 24.6785 97.3479 24.4595 97.3479 24.4595C97.5983 24.2213 97.586 23.88 97.586 23.88V12.16C97.586 11.4714 97.8433 10.8912 98.3779 10.4208C98.9117 9.94433 99.5292 9.69994 100.277 9.69994C101.003 9.69994 101.64 9.94433 102.168 10.4208C102.696 10.8912 102.953 11.4706 102.953 12.16V23.8793C102.953 23.8793 102.979 24.6455 103.757 24.6708H106.905C107.703 24.6708 107.716 23.8793 107.716 23.8793V13.9437C107.761 12.5727 107.471 11.5098 106.995 10.583C105.836 8.32197 103.603 7.19531 100.295 7.19531Z" fill="#F5F5F7"/>
<path d="M17.6007 7.23438C15.6314 7.23438 13.9517 7.84612 12.5292 9.06962C11.1137 7.84612 9.42093 7.23438 7.45779 7.23438C5.4501 7.23438 3.77037 7.73007 2.42551 8.73454C0.81644 9.94497 0 11.6964 0 13.9897V23.8799C0 23.8799 0.0130569 24.2665 0.244241 24.4532C0.244241 24.4532 0.456223 24.6715 0.804151 24.6715H3.96392C4.36331 24.6715 4.56223 24.4402 4.56223 24.4402C4.79418 24.228 4.76807 23.8799 4.76807 23.8799V12.1991C4.76807 11.5166 5.03842 10.9371 5.56608 10.4537C6.0945 9.9834 6.73121 9.74592 7.47776 9.74592C8.22431 9.74592 8.87408 9.98417 9.41479 10.4537C9.92324 10.9364 10.1997 11.5166 10.1997 12.1991V23.8799C10.1997 23.8799 10.2059 24.2603 10.4378 24.4663C10.4378 24.4663 10.6437 24.6592 10.9977 24.6723H14.0999C14.4993 24.6792 14.6783 24.4601 14.6783 24.4601C14.9033 24.2219 14.9033 23.8807 14.9033 23.8807V12.1991C14.9033 11.5166 15.1544 10.9371 15.676 10.4537C16.1975 9.9834 16.8534 9.74592 17.5807 9.74592C18.3142 9.74592 18.9448 9.98417 19.4724 10.4537C19.9939 10.9364 20.2574 11.5166 20.2574 12.1991V23.8799C20.2574 23.8799 20.2766 24.6461 21.0615 24.6715H24.2152C25.007 24.6715 25.0324 23.8799 25.0324 23.8799V13.9897C25.0777 12.6048 24.7881 11.5489 24.305 10.6151C23.1414 8.36181 20.9148 7.23438 17.6007 7.23438Z" fill="#F5F5F7"/>
<path d="M59.8233 9.28698C58.2726 7.90901 56.4131 7.22656 54.2311 7.22656C52.0559 7.22656 50.1834 7.90287 48.6258 9.28698C47.0943 10.665 46.3478 12.3134 46.3862 14.2586V23.879C46.3862 23.879 46.3923 24.6706 47.1903 24.6706H50.2602C51.0644 24.6706 51.0521 23.879 51.0521 23.879V12.4748C51.039 11.7271 51.2963 11.0192 51.9338 10.4651C52.5644 9.90488 53.3371 9.62129 54.238 9.62129C55.1197 9.62129 55.8916 9.90488 56.5352 10.4521C57.1788 11.0123 57.43 11.7401 57.4231 12.4549V17.4779V18.0505V23.8782C57.4231 23.8782 57.4423 24.6698 58.2272 24.6698H61.2587C61.6259 24.6698 61.8371 24.4385 61.8371 24.4385C62.0944 24.1941 62.0621 23.826 62.0621 23.826V14.2578C62.1205 12.3134 61.374 10.665 59.8233 9.28698Z" fill="#F5F5F7"/>
<path d="M80.2373 14.1749C80.2957 12.2436 79.5553 10.582 77.9977 9.20406C76.4539 7.83224 74.5875 7.13672 72.4124 7.13672C70.2311 7.13672 68.3709 7.83224 66.8133 9.20406C65.2626 10.582 64.5099 12.2367 64.5675 14.1749V23.8791C64.5675 23.8791 64.5814 24.6707 65.3724 24.6707H68.4416C69.2526 24.6707 69.2334 23.8791 69.2334 23.8791V19.2011H75.5975V23.8791C75.5975 23.8791 75.6229 24.6707 76.4147 24.6707H79.4332C79.8003 24.6707 80.0254 24.4393 80.0254 24.4393C80.2896 24.1949 80.2373 23.8268 80.2373 23.8268V14.1749ZM75.5975 16.0708H69.2334V12.3973C69.2204 11.6503 69.4777 10.9417 70.1213 10.3814C70.7511 9.82733 71.5169 9.54451 72.4186 9.54451C73.3133 9.54451 74.066 9.8281 74.7219 10.3753C75.3525 10.9355 75.6167 11.6695 75.5975 12.3911V16.0708Z" fill="#F5F5F7"/>
<path d="M35.7111 7.14453C31.1289 7.14453 27.6796 10.1771 27.377 13.7961V18.3558C27.6857 22.0071 31.0966 25.0136 35.7111 25.0005C40.248 25.0397 43.8647 22.0701 44.0706 18.3558V13.7961C43.8578 10.1256 40.2864 7.14453 35.7111 7.14453ZM39.2434 19.6884C39.2818 21.3169 37.6474 22.4951 35.7103 22.4951C33.7864 22.4951 32.2218 21.2462 32.2218 19.6884V12.4504C32.2218 10.8212 33.8824 9.67529 35.7103 9.64916C37.7503 9.65531 39.2434 10.8919 39.2434 12.4504V19.6884Z" fill="#F5F5F7"/>
<path d="M121.308 19.2969C121.776 19.2969 122.123 19.3899 122.348 19.5758C122.573 19.7626 122.685 20.0447 122.685 20.4243C122.685 20.7786 122.585 21.0376 122.389 21.2036C122.19 21.3673 121.943 21.4649 121.649 21.4964L122.776 23.2348H122.118L121.046 21.5417H120.398V23.2348H119.785V19.2976L121.308 19.2969ZM121.039 21.043C121.175 21.043 121.306 21.0391 121.43 21.0307C121.552 21.0222 121.663 20.9953 121.758 20.9538C121.855 20.9115 121.932 20.8478 121.988 20.7609C122.046 20.6741 122.075 20.5519 122.075 20.3936C122.075 20.2629 122.048 20.1569 121.998 20.0785C121.946 20.0016 121.88 19.9417 121.799 19.8986C121.718 19.8571 121.625 19.8279 121.519 19.8141C121.416 19.7995 121.312 19.7918 121.209 19.7918H120.399V21.043H121.039Z" fill="#F5F5F7"/>
<path d="M121.091 24.613C119.252 24.613 117.756 23.1174 117.756 21.2776C117.756 19.4377 119.252 17.9414 121.091 17.9414C122.929 17.9414 124.424 19.4377 124.424 21.2776C124.424 23.1174 122.928 24.613 121.091 24.613ZM121.091 18.4725C119.544 18.4725 118.287 19.7305 118.287 21.2768C118.287 22.8231 119.545 24.0804 121.091 24.0804C122.635 24.0804 123.893 22.8223 123.893 21.2768C123.893 19.7305 122.635 18.4725 121.091 18.4725Z" fill="#F5F5F7"/>
</svg>
